<svg id="SvgjsSvg1001" width="288" height="288" xmlns="http://www.w3.org/2000/svg" version="1.1" xmlns:xlink="http://www.w3.org/1999/xlink" xmlns:svgjs="http://svgjs.com/svgjs"><defs id="SvgjsDefs1002"></defs><g id="SvgjsG1008"><svg xmlns="http://www.w3.org/2000/svg" width="288" height="288" version="1.0" viewBox="0 0 635 393"><g transform="matrix(.1 0 0 -.1 0 393)" fill="#ffffff" class="color000 svgShape"><path d="M988 2435 c-43 -25 -82 -54 -88 -64 -6 -13 -10 -166 -10 -426 l0-407 29 -26 c39 -36 149 -92 167 -85 9 3 14 16 12 31 -2 21 -18 35 -70 65
l-68 39 0 388 0 388 68 39 c68 39 91 75 60 94 -19 12 -16 13 -100 -36z" fill="#ffffff" class="color000 svgShape"></path><path d="M1309 2455c-24-13-93-52-154-87l-110-64 0-355 0-354 25 0 25 0 3 326c2 295 4 328 20 341 35 30 236 139 248 134 7-3 31-16 53-31l41-25 0-364c0-386 1-393 47-384 17 3 18 26 18 398l0 394-70 41c-96 56-97 57-146 30zM1720 2443c-36-20-75-45-87-56l-23-20 0-413c0-227 3-419 6-428 10-26 44-18 124 27l75 43 3 187c2 167 1 188-14 194-9 3-24 2-33-4-13-8-17-38-21-174l-5-163-32-19-33-19 0 371 0 370 70 41c55 32 70 46 70 64 0 19-18 37-33 36-1 0-31-17-67-37z" fill="#ffffff" class="color000 svgShape"></path><path d="M2044 2464c-111-58-276-159-284-174-13-25-13-166 0-191 6-10 17-19 25-19 8 0 66 29 127 65 62 36 116 65 120 65 5 0 8-17 8-37 0-36-3-40-68-78-54-32-67-45-67-65 0-16 6-26 17-28 23-4 165 74 178 98 11 20 14 168 4 194-11 28-41 18-158-49-62-36-116-65-120-65-3 0-6 17-6 38l0 37 126 74 127 73 41-22c69-38 66-30 66-185l0-143-67-39c-93-53-93-73 0-126l67-39 0-156c0-86 4-163 9-170 4-8 19-12 32-10l24 3 0 185 0 185-47 30c-26 17-47 32-47 35 0 3 21 19 47 35l47 30 3 165c1 91 0 175-3 187-3 13-30 36-72 60-93 52-97 53-129 37zM2440 2443c-36-20-75-45-87-56l-23-20 0-412c0-348 2-414 15-432 19-27 136-93 165-93 28 0 297 156 310 180 6 10 10 57 10 103 0 65-4 88-16 98-11 9-20 10-32 2-13-8-18-29-20-91l-3-80-125-72-124-72-53 30-52 29-3 391-2 391 70 41c70 41 84 62 58 88-16 16-14 17-88-25z" fill="#ffffff" class="color000 svgShape"></path><path d="M2759 2462c-110-58-271-156-279-172-14-26-13-655 0-681 16-28 36-24 123 27l77 45 0 244 0 245 33 20c17 11 35 20 40 20 4 0 7-45 7-100 0-84 3-102 16-107 9-3 24-2 33 4 13 9 16 32 16 148 0 120-2 139-18 149-19 12-75-13-149-66l-38-28 0-239 0-240-27-19c-16-10-34-22-40-26-10-6-13 53-13 281l0 289 126 73 127 73 41-22c67-37 65-33 68-162 3-100 6-123 20-131 12-8 21-7 32 2 13 11 16 37 16 145 0 91-4 137-12 148-7 9-47 34-89 57l-75 41-35-18zM3140 2432l-85-49-3-414c-1-228 0-424 3-436 8-32 170-120 190-103 30 25 16 47-55 89l-70 42 2 392 3 391 68 39c67 39 80 60 55 85-17 17-14 17-108-36zM3895 2453c-28-14-67-37-88-50l-37-23 2-432 3-431 72-43c90-53 107-58 122-40 21 25 4 50-61 86l-63 36 0 393 0 394 59 36c70 43 86 62 67 85-17 21-17 21-76-11zM4808 2402c-76-43-146-87-158-97-19-18-20-29-20-356 0-283 2-340 15-352 23-24 141-87 162-87 10 0 83 38 163 84 123 71 145 88 148 110 6 49-23 42-170-43l-141-81-54 31-53 31 2 310 3 310 135 78c75 43 136 85 138 94 4 16-14 46-27 46-3 0-68-35-143-78z" fill="#ffffff" class="color000 svgShape"></path><path d="M3351 2391c-74-44-141-87-148-97-10-14-13-92-13-348 0-182 4-337 9-344 4-8 19-12 32-10l24 3 3 331 2 331 125 72 126 73 52-30 52-29 5-374 5-374 24-3c13-2 28 2 32 10 10 14 12 730 3 764-7 26-139 104-175 104-13-1-85-36-158-79zM4075 2394c-71-42-138-83-147-91-23-21-23-40 1-52 14-8 46 6 160 70l142 80 52-29 52-29 3-449c2-526-5-496 101-438 122 66 111 26 111 415 0 295-2 338-16 350-11 9-20 10-32 2-15-9-18-46-22-337l-5-327-32-20-33-21 0 419c0 355-2 422-15 440-19 28-137 93-167 93-12 0-81-34-153-76zM4934 2312c-72-43-139-83-148-91-12-10-16-32-16-101 0-104 5-120 35-120 30 0 35 16 35 104l0 71 125 73 125 72 55-31c52-29 55-33 55-70 0-21-3-39-6-39-3 0-25 12-49 26-51 29-59 28-149-23-75-43-89-59-75-84 14-27 30-24 98 16 32 19 63 35 68 35 4 0 41-17 81-37 71-37 73-38 87-19 18 23 21 166 5 196-14 26-143 100-172 99-13 0-82-35-154-77zM1275 2274c-98-58-95-54-95-166 0-82 3-100 16-105 36-14 49 10 52 96 3 78 4 81 32 96 16 8 31 15 34 15 3 0 6-25 8-56 3-64 23-88 52-65 12 10 16 33 16 101 0 49-3 95-6 104-10 25-44 18-109-20z" fill="#ffffff" class="color000 svgShape"></path><path d="M3419 2265c-86-50-89-55-89-161 0-77 14-109 46-102 17 3 19 13 22 88 3 83 3 85 33 103 17 9 35 17 39 17 5 0 10-28 12-62 3-53 6-63 22-66 33-7 46 25 46 111 0 84-11 117-38 117-9 0-51-20-93-45zM4075 2229c-77-44-146-85-152-91-10-8-13-73-13-263 0-140 3-260 6-269 3-9 16-16 29-16 13 0 26 7 29 16 3 9 6 122 6 252l0 237 88 49c163 92 194 114 190 139-2 13-11 23-23 25-11 1-83-34-160-79z" fill="#ffffff" class="color000 svgShape"></path><path d="M4153 2110c-40-22-79-50-87-62-24-34-24-589 0-612 19-19 26-20 42-4 9 9 12 88 12 294l0 282 34 21c18 12 36 21 40 21 3 0 7-120 8-267l3-268 25 0 25 0 0 315c0 272-2 315-15 317-8 2-47-15-87-37zM5080 2062c-24-8-242-133-277-159l-33-24 0-93c0-73 3-96 16-107 11-9 20-10 32-2 13 7 18 30 22 92l5 81 135 78c113 65 135 82 138 104 3 27-12 39-38 30zM1278 1947c-105-61-98-40-98-288 0-205 1-219 19-229 15-7 23-6 35 6 14 13 16 47 16 214l0 198 35 21 35 20 2-187 3-187 30 0 30 0 3 210c1 116 0 220-3 233-8 31-39 28-107-11zM3422 1939c-47-26-77-50-83-66-10-26-12-384-3-420 7-27 32-37 50-22 11 9 14 54 14 213l0 202 29 17c16 9 34 17 40 17 7 0 11-61 13-182l3-183 26-3c20-2 28 2 33 20 10 40 7 408-4 429-15 27-36 24-118-22zM1907 1893c-4-3-7-79-7-169l0-162-67-39c-53-30-69-44-71-65-5-44 24-43 107 5 42 24 82 55 88 68 8 15 13 69 13 147 0 67 3 122 6 122 3 0 19-8 35-17l29-17 0-163c0-156 1-163 22-174 41-22 48 7 48 189 0 90-4 172-10 182-11 20-148 100-172 100-8 0-18-3-21-7zM2912 1887c-7-8-12-72-14-172l-3-159-67-39c-71-40-86-67-50-86 25-13 180 71 187 102 3 12 4 99 3 192-3 164-4 170-24 173-11 2-26-3-32-11z" fill="#ffffff" class="color000 svgShape"></path><path d="M4999 1855 c-82 -48 -97 -66 -73 -90 20 -20 19 -20 98 24 l68 39 54
-32 54 -31 0 -61 0 -62 -135 -77 c-75 -43 -140 -86 -145 -96 -12 -21 14 -53
37 -45 45 18 295 171 303 186 13 24 13 166 0 190 -11 20 -148 100 -171 100 -8
0 -48 -20 -90 -45z" fill="#ffffff" class="color000 svgShape"></path></g></svg></g></svg>