<svg id="SvgjsSvg1001" width="288" height="288" xmlns="http://www.w3.org/2000/svg" version="1.1" xmlns:xlink="http://www.w3.org/1999/xlink" xmlns:svgjs="http://svgjs.com/svgjs"><defs id="SvgjsDefs1002"></defs><g id="SvgjsG1008"><svg xmlns="http://www.w3.org/2000/svg" width="288" height="288" version="1.0" viewBox="0 0 512 512"><path d="M2431 4901 c-24 -7 -44 -33 -583 -784 l-222 -309 -117 -706 -118-706 200 -705 c110 -388 205 -711 212 -717 19 -18 1186 -754 1194 -754 12 1
557 959 566 994 4 17 43 367 87 777 l79 746 -65 723 c-35 398 -67 727 -71 730
-8 7 -1110 702 -1128 712 -5 2 -21 2 -34 -1z m604 -1101 c323 -553 595 -1019
606 -1036 l19 -31 -626 -571 -625 -571 -167 145 c-92 80 -303 264 -469 407
-235 204 -302 266 -299 282 2 11 216 541 475 1178 259 636 476 1169 482 1183
5 15 11 25 13 23 2 -2 268 -456 591 -1009z m5 667 c261 -165 481 -305 488
-312 10 -9 29 -181 68 -621 30 -335 53 -619 52 -632 -2 -16 -174 269 -555 922
-304 520 -553 948 -553 951 0 8 -49 38 500 -308z m-808 -8 c-38 -90 -214 -523
-393 -962 -178 -439 -325 -794 -326 -790 -1 4 37 249 85 543 l88 535 303 423
c167 232 305 421 307 419 2 -2 -27 -77 -64 -168z m1423 -1851 c-3 -18 -34
-307 -70 -643 -36 -335 -68 -626 -72 -646 l-8 -37 -510 140 c-280 76 -511 141
-514 143 -2 3 16 22 40 44 24 22 287 262 584 534 297 273 544 496 548 496 4 1
5 -14 2 -31z m-1298 -1059 c-2 -8 -540 -469 -547 -469 -5 0 -321 1207 -320
1222 0 5 195 -162 434 -370 239 -207 434 -380 433 -383z m643 -193 c318 -87
484 -137 482 -145 -4 -20 -476 -891 -482 -891 -5 0 -501 1098 -526 1163 -5 15
-3 17 17 12 13 -4 242 -66 509 -139z m-338 -446 c141 -316 256 -576 254 -578
-6 -6 -1066 683 -1063 691 5 16 532 466 542 463 5 -1 125 -261 267 -576z" transform="matrix(.1 0 0 -.1 0 512)" fill="#ffffff" class="color000 svgShape"></path></svg></g></svg>