<svg id="SvgjsSvg1001" width="288" height="288" xmlns="http://www.w3.org/2000/svg" version="1.1" xmlns:xlink="http://www.w3.org/1999/xlink" xmlns:svgjs="http://svgjs.com/svgjs"><defs id="SvgjsDefs1002"></defs><g id="SvgjsG1008"><svg xmlns="http://www.w3.org/2000/svg" width="288" height="288" version="1.0" viewBox="0 0 256 202"><path d="M305 1931 c3 -6 36 -30 74 -55 121 -81 262 -131 526 -186 83 -18 172-40 199 -51 45 -17 136 -91 136 -111 0 -16 -42 -7 -98 21 -82 41 -142 58 -269
76 -158 23 -307 60 -376 96 -33 16 -61 28 -63 26 -10 -10 59 -87 102 -114 65
-41 123 -60 230 -73 271 -34 472 -81 508 -117 28 -28 34 -48 13 -40 -120 46
-190 60 -352 69 -183 10 -261 24 -355 61 l-60 25 18 -30 c24 -41 67 -77 132
-107 53 -25 60 -26 225 -23 232 3 438 -19 421 -46 -2 -4 -49 -4 -103 0 -116
10 -182 4 -283 -24 -49 -14 -107 -21 -166 -22 -82 -1 -90 -3 -81 -18 19 -30
82 -58 131 -58 26 0 100 13 164 29 236 59 340 73 362 46 15 -19 14 -19 -110
-35 -57 -7 -148 -29 -225 -55 -71 -23 -161 -48 -199 -55 l-70 -13 28 -23 c22
-20 38 -24 89 -24 65 1 79 5 359 119 136 55 148 58 148 39 0 -7 -39 -31 -86
-52 -47 -22 -138 -72 -202 -113 -64 -40 -131 -77 -148 -82 -53 -15 -349 19
-369 42 -5 7 -28 12 -50 13 -50 1 -160 44 -160 63 0 8 -14 15 -34 17 -41 5
-101 48 -101 73 0 11 -12 24 -29 31 -34 13 -71 84 -54 101 7 7 6 20 -4 40 -17
34 -10 119 10 119 7 0 21 23 32 52 16 40 31 59 69 85 59 41 96 44 96 8 0 -16
-12 -34 -35 -52 -45 -36 -45 -65 0 -114 19 -22 35 -48 35 -59 0 -40 55 -14 76
35 8 19 14 65 14 102 0 78 -21 130 -60 151 -34 18 -106 9 -139 -17 -14 -12
-41 -28 -59 -37 -18 -8 -31 -20 -29 -27 2 -7 -4 -23 -13 -37 -34 -49 -80 -152
-73 -163 8 -13 8 -13 18 -113 5 -43 12 -71 19 -70 13 1 136 -129 136 -145 0
-6 6 -9 14 -6 17 7 135 -54 161 -83 13 -14 21 -17 26 -9 10 17 142 -17 165
-42 14 -16 18 -17 28 -4 16 21 100 9 90 -14 -9 -22 -28 -80 -60 -184 -28 -92
-85 -193 -125 -221 -13 -9 -65 -43 -115 -75 -49 -32 -104 -75 -122 -96 -31
-39 -55 -115 -44 -143 3 -8 -2 -20 -12 -27 -15 -12 -14 -14 11 -24 15 -6 39
-18 53 -26 17 -10 56 -15 127 -15 92 0 104 -2 115 -20 18 -28 28 -25 28 10 0
23 4 28 16 23 14 -5 14 -3 6 13 -34 60 -58 77 -115 82 -51 4 -57 7 -57 27 0
12 6 28 14 34 8 7 97 29 198 51 166 35 269 65 307 89 10 7 26 -3 58 -35 37
-38 43 -50 43 -87 0 -69 -11 -117 -27 -117 -19 0 -7 -19 20 -31 12 -5 33 -17
47 -25 20 -12 48 -14 142 -10 115 6 117 5 136 -19 22 -27 32 -23 32 12 0 15 6
23 17 23 12 0 4 13 -27 45 -34 34 -53 46 -87 51 -24 3 -54 15 -68 26 -21 16
-25 28 -25 72 0 89 64 256 98 256 76 -1 261 -41 336 -73 l48 -21 -5 -55 c-4
-31 -13 -76 -22 -100 -8 -24 -18 -68 -21 -98 -6 -45 -10 -53 -28 -53 -21 -1
-21 -1 -1 -15 11 -8 26 -19 32 -25 27 -23 69 -30 174 -30 88 0 111 -3 115 -15
9 -22 24 -8 24 21 0 14 4 22 10 19 6 -3 10 -2 10 4 0 21 -63 60 -115 71 -34 7
-55 16 -53 23 2 7 44 39 92 71 l88 60 43 -23 c24 -13 74 -54 110 -92 54 -55
65 -73 60 -90 -5 -14 -3 -19 3 -15 6 4 28 -3 49 -14 30 -16 56 -20 130 -20 83
0 93 -2 107 -21 15 -22 15 -22 22 7 4 16 10 31 14 34 4 3 -10 25 -31 50 -34
40 -44 45 -91 50 -67 6 -73 15 -167 242 l-72 174 30 58 c17 32 31 67 31 79 0
20 0 20 14 1 14 -19 15 -19 23 1 4 11 8 53 8 92 0 72 0 73 18 50 18 -22 18
-21 12 55 -13 163 -56 254 -168 358 -33 30 -80 73 -104 95 -39 35 -43 43 -35
65 l10 25 10 -26 c6 -14 53 -65 106 -114 52 -48 93 -91 91 -96 -3 -4 8 -17 25
-29 17 -12 27 -26 24 -31 -3 -6 3 -13 15 -16 12 -3 21 -9 21 -14 0 -17 29 -9
60 17 38 33 60 74 60 114 0 17 13 54 30 83 45 80 41 103 -27 163 -101 88 -209
164 -256 180 -25 8 -53 24 -63 35 -10 11 -30 19 -48 19 -85 -1 -236 -57 -316
-118 -19 -15 -51 -38 -70 -50 -42 -29 -120 -103 -120 -115 0 -4 5 -5 10 -2 14
9 13 5 -20 -73 -35 -82 -38 -99 -10 -57 26 39 25 33 -5 -40 -13 -33 -25 -69
-25 -79 0 -19 0 -19 14 -1 12 16 14 10 19 -56 3 -41 9 -84 12 -96 5 -16 1 -24
-14 -33 -20 -10 -24 -7 -47 44 -14 30 -43 135 -65 233 -46 202 -67 248 -142
299 -65 45 -126 62 -287 79 -245 27 -452 74 -591 136 -72 31 -83 34 -74 20z
m1760 -141 c7 -11 -11 -40 -25 -40 -6 0 -7 37 -1 48 3 6 21 1 26 -8z m-65 -25
c0 -7 -76 -40 -115 -49 -45 -11 -21 6 43 31 61 23 72 26 72 18z m-180 -48 c0
-1 -30 -34 -67 -72 -40 -41 -82 -98 -102 -137 -28 -57 -32 -72 -26 -110 21
-129 118 -237 330 -363 44 -27 95 -62 113 -79 44 -41 84 -110 80 -137 -5 -37
-24 -32 -36 8 -22 72 -80 133 -199 208 -219 139 -303 227 -325 342 -11 60 -11
63 22 130 35 72 163 213 194 213 9 0 16 -1 16 -3z m408 -64 c2 -13 8 -23 13
-23 5 0 9 -4 9 -9 0 -5 -12 -6 -27 -2 -18 5 -29 16 -34 35 -7 24 -5 27 14 24
14 -2 23 -11 25 -25z m-378 -50 c0 -9 7 -43 16 -74 22 -77 67 -128 178 -201
82 -54 115 -82 116 -100 0 -11 -263 171 -283 195 -45 54 -68 136 -51 181 8 21
24 20 24 -1z m-1502 -23 l-33 -30 33 -28 c17 -16 29 -31 26 -35 -3 -3 -18 5
-32 19 -15 13 -30 24 -34 24 -21 0 -4 41 25 59 46 30 53 26 15 -9z m1396 -60
c-6 -42 -2 -58 21 -105 32 -66 94 -120 230 -199 103 -61 205 -162 205 -203 0
-31 -12 -29 -32 5 -41 68 -123 144 -213 198 -119 69 -182 119 -219 172 -24 35
-28 49 -23 84 5 45 23 98 32 98 3 0 3 -22 -1 -50z m471 -110 c10 -11 13 -20 7
-20 -7 0 -15 0 -19 -1 -4 0 -10 9 -15 20 -9 27 4 27 27 1z m95 -45 c0 -8 -4
-15 -10 -15 -5 0 -7 7 -4 15 4 8 8 15 10 15 2 0 4 -7 4 -15z m40 -5 c0 -11 -4
-20 -9 -20 -5 0 -7 9 -4 20 3 11 7 20 9 20 2 0 4 -9 4 -20z m-49 -75 c7 -11
-5 -2 -24 20 -20 22 -36 45 -37 50 0 11 45 -40 61 -70z m-570 -308 c24 -30 29
-41 19 -47 -17 -11 -33 -4 -45 19 -6 10 -28 44 -50 77 -43 65 -79 154 -89 224
-6 39 3 25 63 -95 39 -76 85 -157 102 -178z m-344 236 c2 -6 -22 -31 -54 -56
-67 -51 -129 -116 -168 -176 -19 -27 -35 -41 -49 -40 l-21 0 21 9 c17 7 54 50
54 63 0 2 -24 0 -52 -4 -29 -3 -54 -5 -56 -4 -2 2 12 12 30 23 18 11 47 35 63
53 36 39 204 151 218 146 6 -2 12 -8 14 -14z m60 -108 c-2 -5 -37 -22 -77 -36
-53 -19 -82 -35 -102 -60 -16 -19 -24 -35 -18 -37 22 -8 156 34 228 69 52 27
72 33 72 22 0 -19 -88 -58 -192 -85 -79 -20 -86 -25 -107 -60 -22 -38 -84 -82
-140 -98 -45 -13 -38 1 16 30 43 23 103 89 103 115 0 17 41 70 112 143 l62 64
23 -28 c13 -16 21 -33 20 -39z m568 -45 c3 -6 -1 -7 -9 -4 -18 7 -21 14 -7 14
6 0 13 -4 16 -10z m-1205 -105 c0 -2 -10 -19 -23 -38 -13 -19 -29 -65 -36
-103 -28 -156 -107 -259 -286 -377 -91 -60 -114 -80 -132 -117 -28 -54 -29
-90 -3 -122 l19 -25 -24 5 c-58 11 -73 77 -35 151 17 34 41 55 113 101 51 33
109 72 130 87 76 55 146 175 170 289 21 100 52 154 89 154 10 0 18 -2 18 -5z
m410 -230 c10 -12 9 -20 -4 -40 -19 -28 -62 -36 -52 -9 3 9 9 27 12 40 7 27
26 31 44 9z m527 -43 c29 -75 24 -238 -9 -324 -37 -93 -44 -150 -23 -171 15
-16 15 -17 0 -17 -64 0 -70 54 -24 192 37 108 42 227 15 312 -8 27 -13 53 -10
57 10 18 34 -5 51 -49z m-136 -54 c10 -19 10 -19 -15 -3 -28 19 -35 38 -11 29
9 -4 20 -15 26 -26z m-52 -4 c12 -11 -8 -10 -39 2 l-35 14 35 -6 c19 -4 37 -8
39 -10z m-405 -13 c4 -5 -21 -34 -54 -64 l-60 -54 21 -19 c12 -10 30 -37 41
-58 17 -33 19 -50 13 -116 -7 -76 -6 -78 20 -99 l28 -21 -28 0 c-53 0 -65 23
-65 122 0 93 -10 127 -48 162 -21 18 -21 18 46 86 70 71 77 76 86 61z m516
-11 c0 -5 -2 -10 -4 -10 -3 0 -8 5 -11 10 -3 6 -1 10 4 10 6 0 11 -4 11 -10z
m406 -125 l-35 -53 66 -39 c36 -21 82 -58 102 -82 20 -24 52 -61 72 -82 31
-33 34 -39 17 -39 -32 0 -55 18 -96 74 -44 62 -77 91 -147 131 -27 16 -52 30
-54 32 -2 1 16 33 41 70 25 38 49 79 54 93 8 23 9 22 12 -14 3 -30 -4 -49 -32
-91z" transform="matrix(.1 0 0 -.1 0 202)" fill="#ffffff" class="color000 svgShape"></path></svg></g></svg>