<svg id="SvgjsSvg1001" width="288" height="288" xmlns="http://www.w3.org/2000/svg" version="1.1" xmlns:xlink="http://www.w3.org/1999/xlink" xmlns:svgjs="http://svgjs.com/svgjs"><defs id="SvgjsDefs1002"></defs><g id="SvgjsG1008"><svg xmlns="http://www.w3.org/2000/svg" width="288" height="288" version="1.0" viewBox="0 0 2481 2694"><g transform="matrix(.1 0 0 -.1 0 2694)" fill="#ffffff" class="color000 svgShape"><path d="M11685 26923 c-733 -37 -1297 -163 -1930 -433 -355 -151 -694 -348-1030 -600 -478 -358 -858 -777 -1117 -1230 -183 -322 -290 -591 -362 -912
-54 -240 -60 -301 -60 -638 -1 -281 2 -331 22 -460 50 -318 122 -564 237 -810
63 -136 278 -697 323 -840 11 -36 52 -164 92 -285 153 -472 336 -1229 419
-1735 117 -716 143 -1026 145 -1731 l2 -466 -101 -47 c-320 -148 -575 -480
-682 -885 -23 -83 -26 -118 -27 -263 -1 -93 -3 -168 -4 -168 -2 0 -72 51 -155
113 -222 165 -400 319 -588 507 -319 319 -528 601 -685 925 -56 115 -150 363
-141 371 2 2 50 -10 108 -26 474 -136 935 -113 1292 65 356 178 576 447 653
800 25 117 23 329 -5 465 -70 339 -244 643 -498 869 -192 172 -388 242 -678
242 -537 0 -1083 -291 -1440 -770 -38 -50 -71 -91 -74 -91 -14 0 -150 372
-207 568 -125 427 -189 826 -201 1252 -9 334 19 638 87 950 36 162 37 181 7
216 -18 20 -35 28 -73 31 -64 6 -85 -10 -168 -135 -122 -184 -220 -407 -279
-636 l-31 -120 -32 125 c-99 392 -238 699 -441 971 -329 442 -802 725 -1393
832 -212 39 -371 49 -674 43 -361 -7 -647 -44 -1044 -136 -238 -55 -308 -78
-327 -104 -24 -35 -19 -84 13 -117 l28 -28 420 -5 c423 -5 524 -11 779 -48
975 -139 1583 -550 1818 -1225 170 -490 136 -1121 -99 -1846 -219 -674 -613
-1414 -1115 -2093 -293 -397 -427 -598 -607 -910 -479 -830 -747 -1703 -769
-2495 -5 -191 7 -452 23 -493 2 -7 -30 -55 -71 -107 -525 -657 -878 -1537
-995 -2480 -60 -489 -51 -855 31 -1264 110 -544 354 -1022 753 -1474 123 -139
413 -425 581 -573 130 -114 391 -333 658 -553 225 -185 324 -304 427 -514 53
-107 88 -206 116 -327 28 -119 26 -370 -4 -480 -48 -176 -179 -384 -316 -497
-64 -54 -169 -108 -246 -126 -369 -89 -935 131 -1561 605 -155 117 -179 125
-230 74 -50 -51 -43 -78 70 -248 163 -245 322 -428 516 -591 454 -382 1014
-509 1568 -357 212 58 421 152 502 226 258 233 373 375 484 597 284 566 182
1201 -296 1847 -49 66 -131 170 -183 230 -127 149 -419 436 -505 497 -341 240
-781 799 -1059 1345 -186 363 -239 982 -130 1517 30 150 83 334 141 491 42
115 205 457 256 539 l24 38 58 -103 c88 -158 271 -428 392 -579 135 -169 390
-431 549 -564 1025 -857 2303 -1048 3779 -565 l189 62 91 -46 c181 -93 362
-228 445 -333 48 -61 90 -148 90 -186 0 -20 -43 -85 -156 -235 -1400 -1862
-1910 -3455 -1658 -5182 78 -542 255 -1115 486 -1576 306 -610 779 -1184 1246
-1512 37 -25 126 -89 199 -140 782 -554 1679 -775 2598 -642 825 119 1583 526
2062 1106 177 215 324 473 398 698 138 421 185 1163 95 1509 -87 334 -146 449
-361 706 -184 220 -320 330 -554 451 -194 100 -387 161 -615 195 -160 23 -494
16 -665 -15 -366 -65 -709 -193 -1080 -402 -171 -96 -301 -184 -319 -216 -5
-9 -12 -31 -16 -50 -7 -29 -4 -36 26 -63 54 -47 79 -41 209 46 62 41 150 91
196 110 303 128 800 204 1144 175 252 -21 414 -61 584 -142 282 -134 438 -333
501 -639 20 -94 21 -126 17 -305 -17 -612 -215 -1123 -577 -1485 -321 -321
-719 -487 -1235 -516 -500 -28 -1183 170 -1589 460 -259 186 -457 429 -630
777 -234 470 -367 1041 -406 1754 -51 911 148 1672 623 2385 297 445 660 836
1337 1440 719 641 912 839 1119 1148 104 156 175 280 283 496 50 100 92 183
94 185 10 11 235 78 404 120 472 118 916 169 1380 158 454 -11 815 -71 1204
-201 259 -87 215 -44 404 -396 89 -168 243 -465 340 -660 98 -195 213 -413
256 -485 231 -384 646 -973 891 -1266 47 -56 85 -105 85 -109 0 -12 -182 -182
-305 -285 -371 -310 -704 -507 -1029 -610 -178 -57 -260 -69 -446 -69 -145 1
-177 4 -263 27 -371 99 -663 392 -732 736 -21 101 -16 288 9 393 66 272 246
591 475 839 85 93 96 133 52 183 -25 29 -60 38 -97 26 -33 -11 -149 -136 -242
-260 -22 -31 -54 -65 -70 -77 -65 -48 -240 -304 -336 -493 -292 -570 -289
-1097 9 -1515 62 -86 181 -212 269 -284 583 -476 1301 -537 2122 -180 359 156
761 410 1118 706 49 41 92 70 97 66 4 -4 40 -53 81 -108 219 -295 554 -653
818 -874 662 -555 1361 -873 2231 -1016 288 -47 465 -59 859 -59 433 0 651 18
1039 90 73 14 136 22 139 19 13 -13 -127 -269 -244 -447 -263 -399 -587 -701
-939 -874 -161 -79 -372 -144 -710 -219 -434 -96 -570 -137 -740 -222 -139
-70 -231 -137 -340 -247 -115 -116 -184 -214 -260 -371 -171 -353 -217 -696
-134 -1012 103 -392 414 -754 824 -957 146 -72 266 -115 418 -148 146 -32 423
-32 548 -1 244 62 461 193 655 396 206 215 308 446 321 722 6 138 -14 283 -45
324 -23 32 -60 46 -95 37 -32 -8 -33 -9 -144 -152 -234 -303 -446 -493 -604
-540 -98 -29 -380 -27 -502 4 -235 59 -387 191 -454 396 -22 69 -26 99 -26
201 0 99 3 131 21 179 54 145 171 264 345 350 99 49 126 58 237 76 949 155
1748 447 2247 822 235 176 613 610 871 1000 290 438 454 827 557 1319 25 122
39 168 53 179 11 8 73 56 138 107 667 513 1157 1174 1314 1769 42 159 93 497
122 799 18 197 15 696 -6 890 -57 527 -179 948 -397 1376 -281 550 -736 1039
-1259 1353 -228 137 -638 319 -900 400 -374 115 -653 159 -1005 160 -232 0
-341 -10 -545 -50 -69 -13 -127 -24 -129 -24 -2 0 61 66 140 148 579 590 923
1239 1026 1937 22 150 25 570 4 715 -21 156 -59 330 -117 541 -290 1060 -663
1699 -1395 2389 -214 201 -400 365 -844 740 -198 167 -441 374 -539 459 -99
86 -192 167 -208 181 l-29 25 70 107 c192 289 484 483 871 579 125 31 359 33
459 5 340 -94 595 -399 712 -854 81 -315 75 -636 -15 -742 -69 -82 13 -200
107 -155 69 32 250 358 322 577 66 203 79 290 80 513 0 174 -3 214 -23 305
-43 190 -121 371 -232 535 -237 350 -667 595 -1160 661 -125 16 -372 18 -490
4 -384 -48 -755 -208 -1045 -452 -93 -78 -267 -253 -322 -323 l-31 -39 -56 86
c-72 110 -167 306 -205 423 -60 186 -98 398 -128 707 -15 166 -15 185 0 278
50 307 235 635 517 921 377 381 835 577 1235 529 403 -48 751 -308 1039 -774
80 -129 94 -142 159 -139 62 3 91 16 106 50 17 37 14 71 -23 215 -117 464
-356 827 -711 1083 -102 74 -310 181 -430 220 -525 176 -1127 98 -1678 -217
-388 -223 -645 -467 -841 -800 -45 -78 -48 -80 -42 -43 4 22 13 83 21 135 59
380 38 791 -60 1188 -327 1313 -1577 2457 -3170 2898 -479 133 -1001 196
-1595 192 -157 -1 -312 -3 -345 -5z m447 -1732 c639 -99 1135 -292 1563 -610
432 -320 765 -707 999 -1161 269 -523 385 -934 404 -1438 28 -712 -113 -1536
-500 -2922 -71 -258 -228 -800 -258 -894 -16 -50 -47 -155 -70 -233 -22 -79
-69 -232 -104 -340 -35 -109 -78 -245 -95 -303 -16 -58 -57 -179 -89 -270 -32
-91 -59 -172 -59 -180 0 -37 -343 -752 -519 -1081 -103 -193 -113 -230 -71
-269 40 -39 80 -54 137 -53 108 3 430 82 637 158 149 55 404 184 533 270 223
149 377 205 561 205 154 0 340 -64 423 -145 75 -75 125 -226 126 -380 l0 -80
-34 50 c-63 95 -151 159 -281 208 -105 39 -271 49 -390 22 -232 -51 -685 -362
-1305 -894 -74 -64 -202 -169 -283 -234 -175 -139 -353 -309 -448 -427 -85
-106 -159 -245 -159 -301 0 -69 37 -116 104 -133 44 -11 89 10 183 85 103 82
272 170 388 201 67 18 108 22 250 22 152 0 181 -3 277 -27 128 -32 248 -77
378 -142 183 -91 215 -118 575 -480 342 -345 425 -419 590 -528 163 -107 386
-200 547 -227 60 -11 71 -10 105 7 89 44 101 125 33 215 -61 81 -82 151 -87
299 -4 95 -1 147 12 210 38 189 135 437 256 653 35 61 69 125 78 141 41 83
155 237 212 286 148 128 324 355 427 549 128 243 211 547 259 945 26 223 24
820 -5 1259 -28 419 -40 800 -24 795 6 -2 85 -71 175 -152 184 -166 166 -138
226 -367 114 -433 209 -1001 241 -1445 13 -179 13 -496 0 -650 -30 -353 -97
-579 -276 -936 -301 -602 -698 -1039 -1172 -1292 -85 -46 -100 -57 -120 -97
-34 -67 -15 -128 46 -151 31 -12 288 -37 462 -44 163 -7 486 8 660 31 561 72
1036 251 1412 531 435 324 694 781 784 1385 21 144 29 486 15 644 -80 882
-481 1720 -1151 2408 -189 193 -337 326 -530 476 -340 262 -496 415 -700 685
-583 769 -851 1795 -700 2675 23 132 60 217 161 371 210 319 468 555 759 693
95 45 249 101 256 93 2 -2 -33 -32 -78 -68 -312 -241 -549 -505 -691 -769
-140 -260 -184 -484 -174 -893 5 -247 23 -377 82 -592 197 -719 771 -1445
1910 -2420 110 -94 254 -215 320 -270 181 -149 272 -234 376 -351 206 -232
363 -462 541 -789 305 -559 582 -1384 619 -1844 44 -538 -168 -1164 -558
-1649 -422 -525 -993 -860 -1718 -1007 -271 -55 -422 -69 -730 -69 -365 -1
-622 31 -942 116 -191 50 -227 52 -259 14 -26 -29 -32 -83 -14 -117 13 -24 46
-41 294 -149 341 -148 1416 -669 1416 -685 0 -12 -85 -132 -158 -225 -155
-195 -471 -549 -700 -783 l-106 -108 -215 55 c-336 86 -729 158 -914 168 l-48
3 -53 115 c-29 63 -80 180 -112 260 -66 164 -85 190 -141 190 -75 -1 -111 -59
-86 -140 7 -25 39 -144 69 -265 155 -616 309 -1091 500 -1538 61 -143 63 -148
50 -185 -66 -185 -291 -494 -554 -760 -117 -118 -347 -326 -413 -373 l-28 -20
-84 113 c-403 547 -623 895 -828 1313 -70 143 -203 402 -294 575 -92 173 -191
360 -220 415 -29 55 -143 264 -253 465 -110 201 -305 559 -434 795 -129 237
-249 445 -266 462 -41 44 -91 46 -133 4 -40 -40 -37 -69 15 -187 150 -341 240
-689 240 -934 0 -118 -18 -204 -49 -230 -11 -9 -56 -6 -192 14 -98 14 -250 31
-338 37 -201 14 -668 6 -865 -16 -145 -16 -378 -49 -423 -60 l-23 -6 17 113
c33 223 42 397 36 737 -6 314 -19 501 -53 756 -9 66 -17 152 -18 190 -2 101
-27 135 -98 135 -68 0 -84 -26 -118 -187 -27 -130 -113 -318 -345 -748 -470
-875 -678 -1145 -1515 -1970 -953 -939 -1193 -1188 -1446 -1491 -525 -630
-819 -1197 -938 -1813 -90 -460 -144 -1095 -133 -1556 24 -1008 269 -1799 729
-2352 171 -205 352 -370 558 -506 119 -78 149 -94 345 -185 399 -183 646 -262
980 -314 187 -29 543 -31 714 -5 471 74 854 264 1151 573 361 376 564 882 610
1521 28 397 -70 724 -289 955 -82 87 -175 156 -303 223 -57 30 -100 55 -97 55
17 0 156 -53 229 -88 366 -176 596 -489 695 -948 152 -700 -103 -1563 -651
-2203 -164 -191 -341 -344 -593 -509 -249 -163 -530 -287 -829 -363 -126 -32
-180 -41 -319 -49 -391 -25 -830 36 -1233 170 -337 112 -658 279 -939 488 -42
31 -107 77 -146 103 -192 126 -493 408 -679 636 -350 428 -602 891 -786 1443
-244 730 -329 1514 -245 2270 138 1233 711 2463 1799 3860 249 321 511 638
800 969 242 277 236 269 236 306 0 107 -207 193 -435 182 -210 -10 -342 -50
-580 -173 -274 -141 -757 -354 -803 -354 -10 0 -33 -8 -52 -19 -60 -32 -398
-138 -592 -185 -200 -49 -464 -97 -653 -118 -155 -17 -625 -17 -765 0 -537 65
-1007 233 -1430 509 -234 154 -388 282 -605 504 -178 183 -330 369 -466 573
l-99 148 67 77 c234 264 392 417 525 508 l68 46 22 -29 c59 -76 255 -279 366
-378 120 -108 325 -269 379 -297 15 -8 63 -36 108 -62 341 -206 718 -327 1110
-356 526 -40 1050 16 1542 165 45 14 103 31 130 38 124 35 587 223 753 306 77
39 142 98 195 178 43 65 46 163 10 279 -26 87 -28 89 -123 183 -309 304 -839
673 -1287 897 -747 374 -1511 501 -2154 357 -360 -80 -743 -257 -1081 -497
-295 -209 -785 -673 -961 -909 -586 -785 -854 -1946 -662 -2863 64 -307 175
-554 372 -825 149 -206 318 -399 671 -769 515 -539 687 -740 866 -1007 130
-195 235 -426 274 -606 55 -257 -14 -534 -204 -813 -176 -259 -456 -435 -761
-479 -38 -5 -38 -5 12 14 277 101 530 401 621 738 23 89 26 114 26 292 0 167
-3 208 -21 286 -33 134 -78 255 -145 386 -114 226 -242 376 -483 569 -967 772
-1410 1244 -1674 1784 -275 559 -356 1158 -261 1910 83 650 292 1298 589 1820
97 171 204 335 223 341 10 3 43 39 74 80 174 232 454 493 729 680 355 242 809
440 1257 549 382 93 645 119 1113 112 398 -7 573 -25 955 -98 519 -101 1193
-319 1710 -554 l125 -57 140 -9 c77 -5 222 -10 322 -11 179 -3 182 -3 207 21
31 29 42 73 26 111 -19 46 -332 244 -665 422 -179 96 -430 215 -577 274 -54
21 -98 44 -98 49 0 6 -43 69 -96 140 -229 310 -480 719 -643 1048 -254 516
-403 988 -451 1434 -18 162 -8 487 19 628 75 402 270 818 513 1095 142 163
291 285 471 388 77 44 98 51 165 58 103 9 336 -1 447 -21 492 -86 769 -314
890 -730 56 -193 56 -369 1 -531 -71 -211 -168 -332 -400 -502 -60 -44 -272
-142 -393 -182 l-123 -41 -145 11 c-81 6 -157 15 -169 20 -19 7 -26 20 -35 67
-6 32 -22 112 -36 178 -31 149 -31 159 -6 145 55 -29 212 -61 327 -67 224 -11
356 37 552 201 203 169 323 405 309 611 -9 139 -73 264 -197 387 -82 80 -177
129 -299 154 -123 24 -330 15 -466 -20 -126 -34 -279 -108 -370 -180 -38 -31
-79 -60 -91 -65 -42 -19 -188 -232 -285 -416 -152 -290 -215 -522 -226 -835
-17 -497 141 -966 490 -1455 350 -491 937 -1035 1563 -1451 78 -52 145 -94
149 -94 3 0 37 -18 74 -40 37 -22 76 -40 87 -40 13 0 46 -33 95 -92 42 -51
107 -126 145 -167 l68 -73 4 -87 c2 -47 -1 -142 -7 -211 -37 -406 -172 -739
-395 -977 -88 -94 -100 -115 -92 -159 9 -45 48 -74 100 -74 38 0 46 6 110 72
253 263 404 602 461 1031 8 65 15 139 15 164 l0 45 52 -44 c120 -101 242 -163
393 -198 234 -55 355 -36 860 130 288 95 520 164 645 192 86 19 133 23 255 22
178 0 251 -18 459 -113 79 -36 82 -28 25 57 -46 69 -96 127 -323 367 -210 222
-216 228 -456 434 -573 493 -1029 816 -1250 886 -30 10 -74 26 -97 36 -74 33
-174 51 -288 52 -94 0 -122 -3 -190 -26 -238 -80 -383 -251 -440 -522 -24
-108 -24 -364 -1 -499 9 -54 15 -100 13 -102 -7 -7 -134 195 -189 301 -208
401 -222 738 -46 1090 124 246 268 400 466 500 250 125 600 112 876 -33 54
-28 110 -76 255 -216 447 -431 746 -668 1015 -806 118 -60 154 -63 197 -21 47
47 41 84 -29 172 -32 41 -69 90 -82 109 -13 19 -54 71 -91 115 -132 159 -328
430 -592 817 -48 69 -94 134 -103 143 -9 8 -42 51 -73 95 -224 314 -485 509
-777 582 -71 18 -119 22 -231 23 l-143 0 0 80 c0 195 -31 561 -76 895 -116
871 -311 1706 -601 2585 l-66 199 6 281 c18 775 113 1289 332 1800 70 165 129
273 227 421 263 397 803 797 1432 1058 405 169 799 284 1116 326 265 34 345
39 685 35 275 -2 353 -7 467 -24z m-10039 -2447 c566 -69 1101 -319 1466 -684
340 -340 579 -841 632 -1322 15 -134 6 -607 -15 -788 -76 -651 -263 -1274
-572 -1900 -142 -289 -256 -480 -521 -880 -310 -467 -525 -837 -731 -1260
-286 -586 -416 -1021 -414 -1390 0 -92 6 -169 15 -210 15 -64 15 -65 -6 -80
-189 -132 -359 -272 -524 -434 -107 -104 -134 -126 -139 -112 -14 36 5 518 26
676 101 756 392 1515 876 2289 108 172 222 335 409 586 775 1037 1273 2157
1370 3079 17 168 20 438 5 587 -85 841 -597 1434 -1471 1704 -206 64 -466 119
-709 150 l-115 14 148 -5 c82 -2 203 -11 270 -20z m14480 -1100 c-26 -172 -26
-684 0 -869 93 -658 327 -1251 695 -1765 l89 -125 -23 -85 c-127 -461 -146
-780 -94 -1600 49 -767 34 -1191 -57 -1600 -106 -479 -351 -851 -745 -1133
-153 -109 -348 -208 -517 -261 -45 -14 -84 -26 -87 -26 -2 0 -4 15 -4 33 0 27
13 47 66 107 230 255 419 562 503 815 68 205 92 448 62 626 -71 422 -386 849
-731 990 l-77 32 -6 171 c-20 511 3 1061 64 1551 109 874 372 1942 694 2815
50 137 179 449 183 445 2 -1 -5 -56 -15 -121z m-11836 -656 c-3 -7 -5 -2 -5
12 0 14 2 19 5 13 2 -7 2 -19 0 -25z m-12 -180 c-14 -334 32 -766 140 -1313
63 -315 182 -774 257 -991 25 -70 30 -97 22 -113 -8 -19 -14 -10 -48 76 -354
893 -490 1730 -390 2396 9 59 18 107 21 107 3 0 2 -73 -2 -162z m14190 -546
c-6 -5 -39 -29 -75 -54 -184 -129 -358 -314 -566 -603 l-20 -29 -91 94 c-50
52 -102 109 -117 127 l-26 31 42 41 c62 57 165 139 223 176 136 88 340 169
500 199 44 8 89 17 100 19 35 8 40 8 30 -1z m-14231 -1179 c75 -268 223 -677
335 -926 l31 -68 -25 -123 c-90 -445 -47 -947 130 -1496 162 -504 455 -1081
812 -1602 51 -76 91 -138 88 -138 -3 0 -65 18 -138 40 -894 275 -1765 309
-2574 100 -232 -60 -544 -171 -696 -247 -27 -13 -51 -22 -54 -19 -19 19 71
390 156 646 99 296 205 548 361 861 198 395 385 704 744 1229 234 342 440 826
575 1350 65 254 131 594 152 788 0 4 15 -54 33 -128 18 -74 49 -194 70 -267z
m2357 -157 c91 -20 144 -49 209 -115 69 -71 117 -160 126 -232 8 -70 -16 -172
-59 -253 -37 -70 -191 -231 -277 -289 -97 -65 -157 -81 -300 -81 -106 1 -139
5 -214 28 -167 50 -337 149 -440 254 l-48 50 17 53 c26 82 102 221 157 289 93
115 245 219 384 264 138 45 321 58 445 32z m11606 -1249 c557 -613 888 -1283
1006 -2037 29 -187 31 -626 3 -800 -68 -427 -225 -771 -469 -1027 -289 -302
-719 -532 -1200 -643 l-99 -23 -61 63 c-41 41 -57 64 -49 67 37 14 166 110
238 177 158 146 296 337 406 557 200 401 298 896 268 1350 -12 189 -25 277
-130 919 -93 568 -131 834 -159 1095 -22 204 -41 447 -41 533 l0 54 85 -78
c47 -42 138 -136 202 -207z m-9597 -2118 c177 -40 541 -286 1073 -728 l139
-114 -154 -54 c-350 -123 -417 -145 -508 -168 -193 -48 -325 -57 -457 -29
-148 30 -256 99 -370 235 -270 322 -324 595 -150 756 82 76 180 111 307 112
41 0 95 -4 120 -10z m6269 0 c117 -27 214 -97 260 -191 26 -52 31 -73 31 -135
0 -41 -5 -95 -11 -121 -32 -135 -178 -363 -317 -494 -214 -201 -493 -219 -952
-60 -362 125 -450 157 -450 162 1 3 22 22 48 43 26 21 117 96 202 165 425 349
775 581 941 626 63 17 186 20 248 5z m-10858 -2019 c500 -50 1051 -241 1551
-539 l106 -64 50 -96 c102 -196 137 -363 129 -616 -6 -188 -26 -304 -80 -465
l-32 -95 -90 -28 c-212 -66 -500 -127 -750 -158 -152 -20 -534 -17 -680 5
-693 101 -1221 439 -1620 1036 -76 115 -226 405 -264 512 l-20 56 107 65 c156
95 243 140 372 195 226 97 489 168 701 191 120 12 399 13 520 1z m17239 -2004
c150 -24 284 -53 423 -92 521 -144 1011 -438 1345 -807 404 -445 677 -1038
764 -1657 18 -129 18 -771 0 -935 -77 -703 -302 -1260 -661 -1637 -78 -82
-252 -228 -272 -228 -3 0 -3 66 -1 148 8 281 -23 714 -74 1017 -13 83 -26 157
-27 165 -1 8 35 89 80 180 92 185 129 286 178 475 101 392 94 799 -20 1195
-116 404 -329 768 -630 1079 -440 453 -968 712 -1520 746 -667 41 -1536 -466
-2565 -1495 -588 -589 -1230 -1354 -1685 -2009 -245 -352 -638 -770 -1035
-1103 -407 -342 -890 -635 -1275 -773 -285 -103 -478 -139 -740 -140 -275 0
-457 41 -690 156 -286 140 -520 362 -640 604 -63 128 -93 239 -100 375 l-5 95
20 -80 c51 -203 113 -334 217 -464 236 -295 575 -435 1053 -435 255 1 440 36
690 131 124 47 358 166 489 248 414 261 888 687 1446 1300 149 163 398 448
971 1110 521 602 753 861 991 1105 393 405 641 634 953 881 305 242 533 393
825 545 326 170 649 277 945 313 105 13 436 5 550 -13z m-370 -547 c231 -21
451 -84 676 -195 377 -185 699 -473 945 -843 253 -380 382 -794 381 -1226 0
-241 -33 -448 -106 -663 -38 -111 -96 -255 -102 -249 -2 2 -22 64 -44 138
-248 839 -753 1572 -1433 2078 -322 240 -653 429 -1105 632 -96 42 -176 79
-178 82 -7 6 219 110 329 151 156 58 344 98 492 105 17 0 82 -4 145 -10z
m-1025 -714 c634 -374 1194 -759 1501 -1032 308 -274 581 -723 754 -1243 200
-596 285 -1317 216 -1820 -166 -1207 -622 -2226 -1288 -2876 -190 -186 -331
-287 -563 -402 -314 -156 -590 -251 -1250 -431 -375 -102 -497 -142 -641 -211
-140 -66 -214 -118 -316 -221 -159 -162 -214 -325 -205 -604 6 -176 42 -366
86 -460 56 -118 225 -284 388 -380 97 -58 179 -92 291 -122 86 -24 115 -27
262 -26 139 0 178 3 245 21 105 29 240 96 348 173 106 75 280 253 365 373 56
80 62 86 62 58 0 -50 -49 -201 -91 -282 -81 -156 -216 -301 -388 -419 -193
-132 -332 -175 -566 -175 -219 -1 -378 37 -592 139 -150 71 -276 159 -399 277
-241 233 -368 498 -381 798 -6 149 10 256 63 423 133 412 352 662 702 801 140
56 231 81 547 152 341 76 440 102 589 155 594 212 1095 705 1457 1434 66 134
87 187 125 329 117 433 208 889 351 1751 36 219 38 241 38 455 -1 196 -3 238
-23 330 -68 310 -206 592 -428 870 -100 125 -340 360 -494 483 -484 387 -1194
760 -1923 1009 l-179 61 109 102 c255 241 538 479 754 637 l119 87 78 -48 c42
-27 167 -101 277 -166z m-3663 -80 c229 -42 581 -128 763 -186 192 -61 295
-100 295 -110 0 -6 -53 -76 -118 -157 -128 -160 -293 -372 -471 -605 l-113
-149 -21 34 c-157 256 -667 1184 -667 1213 0 13 124 -2 332 -40z m2394 -759
c627 -211 1185 -481 1644 -793 479 -326 808 -677 989 -1053 111 -230 150 -385
158 -630 6 -176 -2 -268 -39 -432 l-21 -97 -106 -39 c-138 -52 -325 -98 -481
-118 -164 -22 -470 -22 -645 0 -679 86 -1366 378 -1990 846 -328 246 -637 554
-860 854 -45 61 -85 117 -89 124 -8 13 47 86 273 362 149 183 324 387 475 555
121 136 459 493 467 494 3 1 104 -32 225 -73z m-1762 -1921 c288 -382 687
-781 1071 -1069 745 -559 1609 -881 2535 -946 80 -5 184 -10 233 -10 48 0 87
-3 87 -6 0 -3 -71 -179 -159 -392 -87 -213 -163 -403 -170 -423 l-12 -36 -102
-12 c-320 -35 -769 -37 -1107 -5 -735 69 -1453 324 -2040 722 -236 160 -561
431 -742 618 -154 161 -447 516 -518 630 -10 17 13 44 217 249 254 255 372
388 536 608 61 81 112 147 113 147 1 0 27 -34 58 -75z" fill="#ffffff" class="color000 svgShape"></path><path d="M10685 22771c-112-65-174-143-175-219 0-46 16-72 45-72 21 0 30 10 49 55 43 96 119 122 180 60 39-39 52-83 43-149-11-74 48-116 91-65 9 11 30 27 45 35 18 10 37 34 49 61 30 67 20 139-27 210-75 113-193 146-300 84zM9939 22259c-65-9-175-49-239-86-81-47-198-144-240-199-93-120-160-340-162-528-1-121 22-191 67-202 45-11 58 12 44 77-23 106 19 312 93 465 67 138 162 218 318 270 111 37 286 18 415-46 97-48 155-105 200-201l40-84-1-135c0-198-42-341-134-465-53-69-153-165-226-213-92-61-94-92-6-92 58 0 131 37 234 120 122 98 170 149 247 264 104 157 134 250 133 416 0 123-12 182-52 265-56 114-162 224-280 289-65 36-190 74-262 81-35 3-79 7-98 9-19 2-60 0-91-5zM11228 22057c-40-15-75-40-148-105-57-51-88-117-97-206-5-57-4-65 14-74 15-8 25-7 41 4 12 8 22 19 22 25 0 5 14 38 31 74 57 116 135 144 218 77 54-44 76-95 75-177 0-76-14-111-63-168-42-48-44-78-7-102 21-14 28-14 58-2 52 22 151 101 181 145 15 21 32 54 37 73 21 72 6 185-34 270-21 45-101 126-148 150-50 25-134 33-180 16z" fill="#ffffff" class="color000 svgShape"></path></g></svg></g></svg>