<svg id="SvgjsSvg1001" width="288" height="288" xmlns="http://www.w3.org/2000/svg" version="1.1" xmlns:xlink="http://www.w3.org/1999/xlink" xmlns:svgjs="http://svgjs.com/svgjs"><defs id="SvgjsDefs1002"></defs><g id="SvgjsG1008"><svg xmlns="http://www.w3.org/2000/svg" width="288" height="288" version="1.0" viewBox="0 0 1400 536"><g transform="matrix(.1 0 0 -.1 0 536)" fill="#ffffff" class="color000 svgShape"><path d="M2260 4754 c-626 -74 -1206 -444 -1531 -976 -229 -374 -339 -817-310 -1240 55 -776 508 -1439 1208 -1770 202 -95 416 -154 663 -183 655 -77
1340 184 1781 680 513 575 675 1339 438 2065 -142 435 -437 822 -829 1087
-152 103 -353 200 -536 257 -273 86 -591 115 -884 80z m597 -97 c546 -104 987
-385 1306 -831 399 -557 478 -1303 207 -1941 -235 -551 -730 -990 -1295 -1148
-140 -39 -172 -45 -305 -62 -789 -97 -1544 262 -1967 937 -155 245 -247 509
-288 821 -91 696 217 1416 790 1847 286 215 622 349 985 394 83 10 487 -2 567
-17z" fill="#ffffff" class="color000 svgShape"></path><path d="M2345 4540 c-823 -74 -1503 -680 -1670 -1487 -72 -347 -43 -720 79
-1040 141 -370 380 -675 701 -895 623 -426 1459 -433 2089 -18 301 198 531
465 678 785 228 496 230 1060 6 1558 -220 489 -659 872 -1178 1027 -208 62
-489 90 -705 70z m196 -906 c83 -89 227 -178 364 -225 99 -33 168 -45 319 -55
l108 -7 -5 -346 c-4 -252 -9 -368 -21 -426 -66 -342 -202 -562 -451 -731 -85
-58 -226 -128 -308 -154 -44 -14 -89 -1 -231 65 -252 118 -439 318 -534 570
-71 186 -92 361 -92 749 l0 273 143 11 c268 21 439 92 627 261 25 23 48 41 51
41 3 0 16 -12 30 -26z" fill="#ffffff" class="color000 svgShape"></path><path d="M2440 3518c-171-132-362-203-585-217l-100-6 0-300c0-307 5-364 46-527 82-329 312-576 659-707l54-21 105 56c149 79 243 146 341 244 90 90 163 192 205 286 27 61 28 80 1 40-60-92-243-248-391-333-89-51-231-123-245-123-7 0-11 277-12 833l-3 833-75-58zM6080 3775c-314-65-565-271-681-560-113-284-101-653 32-918 117-233 317-399 569-473 88-26 108-28 275-29 170 0 185 2 275 29 161 48 267 111 388 230 198 192 286 422 285 741-1 313-95 549-296 742-128 123-275 199-460 237-93 19-295 20-387 1zm350-111c137-38 292-173 361-315 71-145 100-311 100-562-1-359-57-551-210-710-111-116-225-170-381-182-306-23-557 216-627 597-24 131-24 457 0 587 36 197 98 327 205 438 147 150 347 203 552 147zM11870 3388c-52-70-138-167-198-224-128-124-129-134-12-134l80 0 0-483c0-401 3-493 15-542 36-141 109-200 245-200 107 0 185 39 275 138 36 39 64 76 62 81-2 5-11 14-20 20-13 8-24 3-54-25-45-42-82-59-128-59-57 0-102 28-128 79-22 45-22 52-25 519l-3 472 145 0 146 0 0 55 0 55-140 0-140 0-2 182c-2 128-6 183-15 185-6 2-53-51-103-119zM9340 3149c-119-20-259-109-341-219-59-77-117-206-134-296-19-98-19-264 0-355 29-135 125-305 213-376 86-69 195-105 321-106 201-1 356 82 493 262 53 71 122 206 113 221-15 24-51 8-77-33-107-170-259-255-435-245-104 6-187 45-265 125-99 102-150 233-165 420l-6 83 449 2 449 3-3 55c-7 124-56 236-141 320-122 121-286 169-471 139zm147-115c63-23 118-89 142-171 11-37 22-85 26-105l6-38-300 0-300 0 6 33c11 57 43 136 77 184 74 107 208 145 343 97zM10325 3096c-173-57-190-65-193-87-3-23 0-24 52-25 61-1 102-22 116-60 14-36 13-908-1-957-12-44-47-70-121-88-35-9-48-18-48-31 0-17 17-18 310-18 296 0 310 1 310 19 0 14-10 20-45 24-62 9-101 31-122 70-16 29-18 73-21 463l-3 432 53 46c29 26 78 61 108 79 50 29 62 32 140 32 104 0 135-18 177-103l28-57 3-398c3-341 1-406-13-453-17-61-43-82-121-104-32-9-44-18-44-31 0-18 14-19 300-19 286 0 300 1 300 19 0 14-10 20-42 24-49 7-86 32-113 78-19 32-20 57-26 479-6 480-6 487-63 584-61 105-159 152-298 144-102-6-192-50-312-154l-86-74 0 115c0 103-2 115-17 114-10-1-103-29-208-63zM12878 3145c-203-41-382-223-450-460-19-67-23-103-23-225 0-174 22-264 91-387 108-190 259-278 474-276 166 1 296 64 425 205 87 95 135 181 135 240 0 27-4 48-9 48-5 0-29-28-54-62-119-167-253-237-427-225-149 10-279 104-353 257-39 79-77 241-77 324l0 46 450 0 450 0 0 24c0 50-29 173-54 229-33 76-139 182-219 220-111 54-230 67-359 42zm180-122c79-37 127-121 147-257l7-46-300 0-300 0 9 39c26 118 86 213 164 261 71 44 184 45 273 3zM7372 3113c2-11 20-23 43-31 55-18 97-61 135-140 37-75 164-348 379-815 114-247 117-263 76-372-63-168-169-325-219-325-8 0-52 12-97 26-135 42-220 30-255-38-23-44-14-121 17-154 66-70 210-88 316-40 151 70 235 213 441 761 44 116 121 320 172 455 149 392 160 422 181 479 33 93 64 137 109 155 28 11 40 22 40 36 0 19-6 20-195 20-165 0-195-2-195-15 0-18 31-35 63-35 14 0 35-9 48-19 19-16 24-28 22-63-2-46-16-88-142-438-45-124-94-259-108-300-14-41-29-78-32-83-4-4-33 50-64 120-31 71-84 189-118 263-129 286-180 402-185 428-4 19 1 36 15 54 20 25 30 29 114 43 28 4 37 11 37 25 0 19-9 20-301 20-281 0-300-1-297-17z" fill="#ffffff" class="color000 svgShape"></path></g></svg></g></svg>