<svg id="SvgjsSvg1001" width="288" height="288" xmlns="http://www.w3.org/2000/svg" version="1.1" xmlns:xlink="http://www.w3.org/1999/xlink" xmlns:svgjs="http://svgjs.com/svgjs"><defs id="SvgjsDefs1002"></defs><g id="SvgjsG1008"><svg xmlns="http://www.w3.org/2000/svg" width="288" height="288" viewBox="0 0 400 113.333"><path fill="#ffffff" fill-rule="evenodd" d="M54.000 0.323 C 54.000 0.577,53.865 0.658,53.375 0.698 C 52.786 0.747,52.747 0.785,52.699 1.366 C 52.651 1.944,52.610 1.984,52.032 2.032 C 51.454 2.080,51.414 2.121,51.366 2.699 C 51.317 3.277,51.277 3.317,50.699 3.366 C 50.121 3.414,50.080 3.454,50.032 4.032 C 49.984 4.610,49.944 4.651,49.366 4.699 C 48.787 4.747,48.747 4.787,48.699 5.366 C 48.651 5.944,48.610 5.984,48.032 6.032 C 47.454 6.080,47.414 6.121,47.366 6.699 C 47.317 7.277,47.277 7.317,46.699 7.366 C 46.121 7.414,46.080 7.454,46.032 8.032 C 45.984 8.610,45.944 8.651,45.366 8.699 C 44.787 8.747,44.747 8.787,44.699 9.366 C 44.651 9.944,44.610 9.984,44.032 10.032 C 43.454 10.080,43.414 10.121,43.366 10.699 C 43.317 11.277,43.277 11.317,42.699 11.366 C 42.121 11.414,42.080 11.454,42.032 12.032 C 41.984 12.610,41.944 12.651,41.366 12.699 C 40.787 12.747,40.747 12.787,40.699 13.366 C 40.651 13.944,40.610 13.984,40.032 14.032 C 39.454 14.080,39.414 14.121,39.366 14.699 C 39.317 15.277,39.277 15.317,38.699 15.366 C 38.121 15.414,38.080 15.454,38.032 16.032 C 37.984 16.610,37.944 16.651,37.366 16.699 C 36.787 16.747,36.747 16.787,36.699 17.366 C 36.651 17.944,36.610 17.984,36.032 18.032 C 35.454 18.080,35.414 18.121,35.366 18.699 C 35.317 19.277,35.277 19.317,34.699 19.366 C 34.121 19.414,34.080 19.454,34.032 20.032 C 33.984 20.610,33.944 20.651,33.366 20.699 C 32.787 20.747,32.747 20.787,32.699 21.366 C 32.651 21.944,32.610 21.984,32.032 22.032 C 31.454 22.080,31.414 22.121,31.366 22.699 C 31.317 23.277,31.277 23.317,30.699 23.366 C 30.121 23.414,30.080 23.454,30.032 24.032 C 29.984 24.610,29.944 24.651,29.366 24.699 C 28.787 24.747,28.747 24.787,28.699 25.366 C 28.651 25.944,28.610 25.984,28.032 26.032 C 27.454 26.080,27.414 26.121,27.366 26.699 C 27.317 27.277,27.277 27.317,26.699 27.366 C 26.121 27.414,26.080 27.454,26.032 28.032 C 25.984 28.610,25.944 28.651,25.366 28.699 C 24.787 28.747,24.747 28.787,24.699 29.366 C 24.651 29.944,24.610 29.984,24.032 30.032 C 23.454 30.080,23.414 30.121,23.366 30.699 C 23.317 31.277,23.277 31.317,22.699 31.366 C 22.121 31.414,22.080 31.454,22.032 32.032 C 21.984 32.610,21.944 32.651,21.366 32.699 C 20.787 32.747,20.747 32.787,20.699 33.366 C 20.651 33.944,20.610 33.984,20.032 34.032 C 19.454 34.080,19.414 34.121,19.366 34.699 C 19.317 35.277,19.277 35.317,18.699 35.366 C 18.121 35.414,18.080 35.454,18.032 36.032 C 17.984 36.610,17.944 36.651,17.366 36.699 C 16.787 36.747,16.747 36.787,16.699 37.366 C 16.651 37.944,16.610 37.984,16.032 38.032 C 15.454 38.080,15.414 38.121,15.366 38.699 C 15.317 39.277,15.277 39.317,14.699 39.366 C 14.121 39.414,14.080 39.454,14.032 40.032 C 13.984 40.610,13.944 40.651,13.366 40.699 C 12.787 40.747,12.747 40.787,12.699 41.366 C 12.651 41.944,12.610 41.984,12.032 42.032 C 11.454 42.080,11.414 42.121,11.366 42.699 C 11.317 43.277,11.277 43.317,10.699 43.366 C 10.121 43.414,10.080 43.454,10.032 44.032 C 9.984 44.610,9.944 44.651,9.366 44.699 C 8.787 44.747,8.747 44.787,8.699 45.366 C 8.651 45.944,8.610 45.984,8.032 46.032 C 7.454 46.080,7.414 46.121,7.366 46.699 C 7.317 47.277,7.277 47.317,6.699 47.366 C 6.121 47.414,6.080 47.454,6.032 48.032 C 5.984 48.610,5.944 48.651,5.366 48.699 C 4.787 48.747,4.747 48.787,4.699 49.366 C 4.651 49.944,4.610 49.984,4.032 50.032 C 3.454 50.080,3.414 50.121,3.366 50.699 C 3.317 51.277,3.277 51.317,2.699 51.366 C 2.121 51.414,2.080 51.454,2.032 52.032 C 1.984 52.610,1.944 52.651,1.366 52.699 C 0.785 52.747,0.747 52.786,0.698 53.375 C 0.658 53.865,0.577 54.000,0.323 54.000 C 0.017 54.000,0.000 54.138,0.000 56.583 C 0.000 59.056,0.014 59.167,0.333 59.167 C 0.545 59.167,0.667 59.278,0.667 59.472 C 0.667 59.640,0.723 59.834,0.792 59.903 C 0.860 59.972,0.917 60.115,0.917 60.222 C 0.917 60.329,0.992 60.427,1.083 60.439 C 1.806 60.536,2.130 60.861,2.228 61.583 C 2.240 61.675,2.325 61.756,2.417 61.764 C 3.041 61.818,3.593 62.282,3.588 62.750 C 3.586 62.978,3.690 63.079,3.918 63.069 C 4.336 63.050,4.921 63.643,4.920 64.083 C 4.919 64.311,5.024 64.412,5.251 64.402 C 5.669 64.384,6.255 64.976,6.253 65.417 C 6.252 65.644,6.358 65.745,6.584 65.735 C 7.003 65.717,7.588 66.310,7.586 66.750 C 7.586 66.977,7.691 67.079,7.918 67.069 C 8.100 67.061,8.421 67.229,8.631 67.444 C 8.840 67.658,8.972 67.833,8.923 67.833 C 8.873 67.833,8.965 67.971,9.125 68.140 C 9.285 68.309,9.454 68.431,9.500 68.412 C 9.546 68.393,9.755 68.555,9.964 68.772 C 10.174 68.989,10.305 69.167,10.256 69.167 C 10.207 69.167,10.298 69.305,10.458 69.474 C 10.619 69.642,10.787 69.765,10.833 69.746 C 10.879 69.726,11.088 69.888,11.298 70.105 C 11.507 70.322,11.638 70.500,11.589 70.500 C 11.540 70.500,11.631 70.638,11.792 70.807 C 11.952 70.976,12.121 71.098,12.167 71.079 C 12.213 71.060,12.421 71.222,12.631 71.439 C 12.840 71.656,12.972 71.833,12.923 71.833 C 12.873 71.833,12.965 71.971,13.125 72.140 C 13.285 72.309,13.473 72.417,13.542 72.380 C 13.610 72.344,13.667 72.388,13.667 72.479 C 13.667 72.570,13.809 72.689,13.982 72.744 C 14.155 72.799,14.336 72.992,14.383 73.171 C 14.430 73.351,14.601 73.549,14.763 73.611 C 15.136 73.755,15.577 74.192,15.717 74.558 C 15.777 74.714,15.953 74.890,16.108 74.949 C 16.471 75.088,16.912 75.529,17.051 75.892 C 17.110 76.047,17.286 76.223,17.442 76.283 C 17.808 76.423,18.245 76.864,18.389 77.237 C 18.451 77.399,18.651 77.571,18.834 77.619 C 19.017 77.666,19.167 77.772,19.167 77.853 C 19.167 77.934,19.223 77.991,19.292 77.980 C 19.664 77.922,19.813 78.026,19.716 78.277 C 19.639 78.480,19.670 78.518,19.833 78.417 C 19.995 78.317,20.028 78.353,19.953 78.548 C 19.878 78.745,19.921 78.789,20.119 78.713 C 20.311 78.640,20.349 78.672,20.254 78.827 C 20.166 78.970,20.195 79.018,20.341 78.970 C 20.640 78.870,21.130 79.359,21.026 79.652 C 20.969 79.815,21.012 79.845,21.167 79.750 C 21.328 79.650,21.362 79.686,21.287 79.881 C 21.211 80.079,21.255 80.122,21.452 80.047 C 21.644 79.973,21.683 80.006,21.587 80.160 C 21.499 80.303,21.529 80.352,21.675 80.303 C 21.973 80.203,22.463 80.692,22.360 80.986 C 22.302 81.149,22.346 81.179,22.500 81.083 C 22.662 80.983,22.695 81.019,22.620 81.214 C 22.544 81.412,22.588 81.456,22.786 81.380 C 22.977 81.306,23.016 81.339,22.921 81.493 C 22.830 81.640,22.862 81.683,23.018 81.627 C 23.345 81.510,23.831 81.978,23.710 82.293 C 23.638 82.481,23.673 82.516,23.833 82.417 C 23.995 82.317,24.028 82.353,23.953 82.548 C 23.878 82.745,23.921 82.789,24.119 82.713 C 24.314 82.638,24.350 82.672,24.250 82.833 C 24.150 82.994,24.186 83.028,24.376 82.955 C 24.564 82.883,25.477 83.680,27.496 85.677 C 30.130 88.282,30.526 88.591,31.127 88.512 C 31.364 88.481,31.678 89.166,31.536 89.403 C 31.486 89.488,31.566 89.510,31.714 89.453 C 31.888 89.387,31.955 89.423,31.904 89.557 C 31.851 89.695,32.024 89.778,32.418 89.805 C 33.027 89.846,33.493 89.563,33.380 89.222 C 33.344 89.117,33.406 88.975,33.517 88.906 C 33.640 88.830,33.675 88.852,33.606 88.963 C 33.545 89.062,33.573 89.192,33.668 89.251 C 33.764 89.310,33.831 89.296,33.818 89.221 C 33.754 88.856,33.860 88.667,34.126 88.667 C 34.722 88.667,50.258 72.895,49.988 72.563 C 49.773 72.299,49.782 72.283,50.083 72.398 C 50.784 72.664,50.788 72.658,50.543 71.789 C 50.481 71.570,50.530 71.522,50.732 71.599 C 50.940 71.679,50.977 71.635,50.890 71.408 C 50.804 71.182,50.833 71.146,51.013 71.255 C 51.215 71.376,51.217 71.356,51.021 71.115 C 50.895 70.960,50.848 70.833,50.917 70.833 C 50.985 70.833,50.948 70.722,50.835 70.585 C 50.722 70.449,50.568 70.375,50.493 70.421 C 50.418 70.468,50.309 70.429,50.252 70.336 C 50.194 70.243,50.058 70.168,49.948 70.169 C 49.826 70.171,49.846 70.240,50.000 70.349 C 50.222 70.506,50.222 70.517,50.000 70.450 C 49.862 70.409,49.768 70.293,49.790 70.193 C 49.882 69.771,49.473 69.140,49.001 68.975 C 48.705 68.872,48.500 68.683,48.500 68.513 C 48.500 68.204,47.927 67.612,47.474 67.453 C 47.322 67.399,47.149 67.131,47.088 66.855 C 47.005 66.476,46.860 66.329,46.489 66.248 C 46.220 66.189,45.991 66.090,45.981 66.028 C 45.971 65.967,45.937 65.702,45.906 65.439 C 45.838 64.856,45.805 64.821,45.311 64.795 C 44.759 64.766,44.542 64.562,44.542 64.073 C 44.542 63.558,44.477 63.488,43.977 63.462 C 43.426 63.433,43.208 63.229,43.208 62.740 C 43.208 62.213,43.120 62.125,42.587 62.125 C 42.112 62.125,41.958 61.955,41.895 61.364 C 41.841 60.862,41.802 60.825,41.268 60.768 C 40.724 60.710,40.623 60.610,40.565 60.065 C 40.507 59.521,40.477 59.493,39.895 59.431 C 39.503 59.389,39.396 59.276,39.278 58.778 C 39.157 58.266,39.051 58.160,38.568 58.069 C 38.172 57.995,37.994 57.868,37.979 57.648 C 37.944 57.117,37.922 57.033,37.778 56.889 C 37.639 56.751,37.559 56.727,37.083 56.688 C 36.721 56.657,36.777 56.387,37.166 56.285 C 37.349 56.237,37.549 56.066,37.611 55.904 C 37.755 55.531,38.192 55.090,38.558 54.949 C 38.714 54.890,38.890 54.714,38.949 54.558 C 39.088 54.196,39.529 53.755,39.892 53.616 C 40.047 53.556,40.223 53.380,40.283 53.225 C 40.422 52.863,40.863 52.422,41.225 52.283 C 41.380 52.223,41.556 52.047,41.616 51.892 C 41.757 51.525,42.197 51.088,42.570 50.945 C 42.732 50.883,42.904 50.682,42.952 50.499 C 43.078 50.016,43.559 50.064,43.465 50.550 C 43.394 50.923,43.703 51.408,43.891 51.220 C 44.113 50.998,44.833 51.351,44.833 51.682 C 44.833 52.119,45.170 52.454,45.681 52.527 C 45.959 52.566,46.101 52.708,46.140 52.985 C 46.212 53.496,46.504 53.788,47.013 53.860 C 47.256 53.894,47.437 54.048,47.474 54.250 C 47.559 54.720,47.995 55.167,48.368 55.167 C 48.569 55.167,48.769 55.371,48.919 55.730 C 49.073 56.098,49.306 56.332,49.588 56.403 C 49.871 56.474,50.104 56.708,50.257 57.075 C 50.422 57.469,50.634 57.670,50.962 57.742 C 51.283 57.812,51.491 58.004,51.622 58.350 C 51.738 58.658,52.001 58.925,52.296 59.037 C 52.585 59.146,52.854 59.415,52.963 59.704 C 53.075 60.001,53.342 60.262,53.656 60.380 C 53.937 60.486,54.167 60.669,54.167 60.787 C 54.167 60.904,54.246 61.000,54.343 61.000 C 54.440 61.000,54.472 61.077,54.414 61.171 C 54.356 61.265,54.408 61.321,54.529 61.296 C 54.651 61.271,54.729 61.349,54.704 61.471 C 54.679 61.592,54.735 61.644,54.829 61.586 C 54.923 61.528,55.000 61.560,55.000 61.657 C 55.000 61.754,55.079 61.833,55.177 61.833 C 55.274 61.833,55.297 61.740,55.228 61.625 C 55.132 61.466,55.165 61.467,55.367 61.631 C 56.103 62.227,57.747 61.774,57.866 60.943 C 57.894 60.742,58.062 60.560,58.250 60.526 C 58.714 60.442,59.139 60.032,59.199 59.609 C 59.228 59.409,59.396 59.227,59.583 59.193 C 60.047 59.108,60.472 58.698,60.532 58.276 C 60.561 58.076,60.729 57.894,60.917 57.859 C 61.381 57.775,61.805 57.365,61.866 56.943 C 61.894 56.742,62.062 56.560,62.250 56.526 C 62.714 56.442,63.139 56.032,63.199 55.609 C 63.228 55.409,63.396 55.227,63.583 55.193 C 64.047 55.108,64.472 54.698,64.532 54.276 C 64.561 54.076,64.729 53.894,64.917 53.859 C 65.381 53.775,65.805 53.365,65.866 52.943 C 65.894 52.742,66.062 52.560,66.250 52.526 C 66.714 52.442,67.139 52.032,67.199 51.609 C 67.228 51.409,67.396 51.227,67.583 51.193 C 68.047 51.108,68.472 50.698,68.532 50.276 C 68.561 50.076,68.729 49.894,68.917 49.859 C 69.381 49.775,69.805 49.365,69.866 48.943 C 69.894 48.742,70.062 48.560,70.250 48.526 C 70.714 48.442,71.139 48.032,71.199 47.609 C 71.228 47.409,71.396 47.227,71.583 47.193 C 72.047 47.108,72.472 46.698,72.532 46.276 C 72.561 46.076,72.729 45.894,72.917 45.859 C 73.381 45.775,73.805 45.365,73.866 44.941 C 73.897 44.723,74.057 44.563,74.274 44.532 C 74.698 44.472,75.108 44.048,75.193 43.583 C 75.227 43.396,75.409 43.228,75.609 43.199 C 76.032 43.139,76.442 42.714,76.526 42.250 C 76.560 42.062,76.742 41.894,76.943 41.866 C 77.365 41.805,77.775 41.381,77.859 40.917 C 77.894 40.729,78.076 40.561,78.276 40.532 C 78.698 40.472,79.108 40.047,79.193 39.583 C 79.227 39.396,79.409 39.228,79.609 39.199 C 80.032 39.139,80.442 38.714,80.526 38.250 C 80.560 38.062,80.742 37.894,80.943 37.866 C 81.365 37.805,81.775 37.381,81.859 36.917 C 81.894 36.729,82.076 36.561,82.276 36.532 C 82.698 36.472,83.108 36.047,83.193 35.583 C 83.227 35.396,83.409 35.228,83.609 35.199 C 84.032 35.139,84.442 34.714,84.526 34.250 C 84.560 34.062,84.742 33.894,84.943 33.866 C 85.364 33.805,85.775 33.381,85.860 32.919 C 85.893 32.736,86.070 32.560,86.252 32.526 C 86.785 32.429,87.135 32.015,87.247 31.348 C 87.305 31.006,87.498 30.621,87.676 30.493 C 88.221 30.100,88.085 29.902,85.425 27.234 C 83.576 25.379,82.879 24.575,82.953 24.382 C 83.028 24.186,82.995 24.150,82.833 24.250 C 82.672 24.350,82.638 24.314,82.713 24.119 C 82.789 23.921,82.745 23.878,82.548 23.953 C 82.353 24.028,82.317 23.995,82.417 23.833 C 82.516 23.673,82.481 23.638,82.293 23.710 C 81.978 23.831,81.510 23.345,81.627 23.018 C 81.683 22.862,81.640 22.830,81.493 22.921 C 81.339 23.016,81.306 22.977,81.380 22.786 C 81.456 22.588,81.412 22.544,81.214 22.620 C 81.019 22.695,80.983 22.662,81.083 22.500 C 81.179 22.346,81.149 22.302,80.986 22.360 C 80.692 22.463,80.203 21.973,80.303 21.675 C 80.352 21.529,80.303 21.499,80.160 21.587 C 80.006 21.683,79.973 21.644,80.047 21.452 C 80.122 21.255,80.079 21.211,79.881 21.287 C 79.686 21.362,79.650 21.328,79.750 21.167 C 79.845 21.012,79.815 20.969,79.652 21.026 C 79.359 21.130,78.870 20.640,78.970 20.341 C 79.018 20.195,78.970 20.166,78.827 20.254 C 78.672 20.349,78.640 20.311,78.713 20.119 C 78.789 19.921,78.745 19.878,78.548 19.953 C 78.353 20.028,78.317 19.995,78.417 19.833 C 78.518 19.670,78.480 19.639,78.277 19.716 C 78.026 19.813,77.922 19.664,77.980 19.292 C 77.991 19.223,77.934 19.167,77.853 19.167 C 77.772 19.167,77.666 19.017,77.619 18.834 C 77.571 18.651,77.399 18.451,77.237 18.389 C 76.864 18.245,76.423 17.808,76.283 17.442 C 76.223 17.286,76.047 17.110,75.892 17.051 C 75.529 16.912,75.088 16.471,74.949 16.108 C 74.890 15.953,74.714 15.777,74.558 15.717 C 74.192 15.577,73.755 15.136,73.611 14.763 C 73.549 14.601,73.351 14.430,73.171 14.383 C 72.992 14.336,72.799 14.155,72.744 13.982 C 72.689 13.809,72.570 13.667,72.479 13.667 C 72.388 13.667,72.344 13.610,72.380 13.542 C 72.417 13.473,72.309 13.285,72.140 13.125 C 71.971 12.965,71.833 12.873,71.833 12.923 C 71.833 12.972,71.656 12.840,71.439 12.631 C 71.222 12.421,71.060 12.213,71.079 12.167 C 71.098 12.121,70.976 11.952,70.807 11.792 C 70.638 11.631,70.500 11.540,70.500 11.589 C 70.500 11.638,70.322 11.507,70.105 11.298 C 69.888 11.088,69.726 10.879,69.746 10.833 C 69.765 10.787,69.642 10.619,69.474 10.458 C 69.305 10.298,69.167 10.207,69.167 10.256 C 69.167 10.305,68.989 10.174,68.772 9.964 C 68.555 9.755,68.393 9.546,68.412 9.500 C 68.431 9.454,68.309 9.285,68.140 9.125 C 67.971 8.965,67.833 8.873,67.833 8.923 C 67.833 8.972,67.658 8.840,67.444 8.631 C 67.229 8.421,67.061 8.100,67.069 7.917 C 67.079 7.685,66.982 7.588,66.750 7.598 C 66.331 7.616,65.745 7.024,65.747 6.583 C 65.748 6.356,65.642 6.255,65.416 6.265 C 64.997 6.283,64.412 5.690,64.414 5.250 C 64.414 5.023,64.309 4.921,64.082 4.931 C 63.664 4.950,63.078 4.356,63.081 3.917 C 63.083 3.692,62.974 3.585,62.750 3.587 C 62.283 3.593,61.818 3.041,61.764 2.417 C 61.756 2.325,61.675 2.240,61.583 2.228 C 60.861 2.130,60.536 1.806,60.439 1.083 C 60.427 0.992,60.329 0.917,60.222 0.917 C 60.115 0.917,59.972 0.860,59.903 0.792 C 59.834 0.723,59.640 0.667,59.472 0.667 C 59.278 0.667,59.167 0.545,59.167 0.333 C 59.167 0.014,59.056 0.000,56.583 0.000 C 54.138 0.000,54.000 0.017,54.000 0.323 M103.167 11.522 C 103.167 11.580,103.017 11.667,102.834 11.715 C 102.651 11.763,102.451 11.934,102.389 12.096 C 102.245 12.469,101.808 12.910,101.442 13.051 C 101.286 13.110,101.110 13.286,101.051 13.442 C 100.912 13.804,100.471 14.245,100.108 14.384 C 99.953 14.444,99.777 14.620,99.717 14.775 C 99.578 15.137,99.137 15.578,98.775 15.717 C 98.620 15.777,98.444 15.953,98.384 16.108 C 98.245 16.471,97.804 16.912,97.442 17.051 C 97.286 17.110,97.110 17.286,97.051 17.442 C 96.912 17.804,96.471 18.245,96.108 18.384 C 95.953 18.444,95.777 18.620,95.717 18.775 C 95.577 19.142,95.136 19.579,94.763 19.722 C 94.601 19.784,94.429 19.985,94.381 20.168 C 94.334 20.350,94.245 20.500,94.184 20.500 C 94.123 20.500,94.052 21.015,94.026 21.645 C 93.975 22.910,94.198 23.333,94.919 23.333 C 95.254 23.333,95.321 23.427,95.365 23.958 C 95.414 24.547,95.452 24.586,96.032 24.634 C 96.610 24.683,96.651 24.723,96.699 25.301 C 96.747 25.879,96.787 25.920,97.366 25.968 C 97.944 26.016,97.984 26.056,98.032 26.634 C 98.080 27.213,98.121 27.253,98.699 27.301 C 99.277 27.349,99.317 27.390,99.366 27.968 C 99.414 28.546,99.454 28.586,100.032 28.634 C 100.610 28.683,100.651 28.723,100.699 29.301 C 100.747 29.879,100.787 29.920,101.366 29.968 C 101.944 30.016,101.984 30.056,102.032 30.634 L 102.083 31.250 104.000 31.250 L 105.917 31.250 105.968 30.634 C 106.016 30.056,106.056 30.016,106.634 29.968 C 107.213 29.920,107.253 29.879,107.301 29.301 C 107.349 28.723,107.390 28.683,107.968 28.634 C 108.546 28.586,108.586 28.546,108.634 27.968 C 108.683 27.390,108.723 27.349,109.301 27.301 C 109.879 27.253,109.920 27.213,109.968 26.634 C 110.016 26.056,110.056 26.016,110.634 25.968 C 111.213 25.920,111.253 25.879,111.301 25.301 C 111.349 24.723,111.390 24.683,111.968 24.634 C 112.548 24.586,112.586 24.547,112.635 23.958 C 112.679 23.427,112.746 23.333,113.081 23.333 C 113.802 23.333,114.023 22.914,113.967 21.646 C 113.939 21.016,113.869 20.500,113.811 20.500 C 113.753 20.500,113.666 20.350,113.619 20.168 C 113.571 19.985,113.399 19.784,113.237 19.722 C 112.864 19.579,112.423 19.142,112.283 18.775 C 112.223 18.620,112.047 18.444,111.892 18.384 C 111.529 18.245,111.088 17.804,110.949 17.442 C 110.890 17.286,110.714 17.110,110.558 17.051 C 110.196 16.912,109.755 16.471,109.616 16.108 C 109.556 15.953,109.380 15.777,109.225 15.717 C 108.863 15.578,108.422 15.137,108.283 14.775 C 108.223 14.620,108.047 14.444,107.892 14.384 C 107.529 14.245,107.088 13.804,106.949 13.442 C 106.890 13.286,106.714 13.110,106.558 13.051 C 106.192 12.910,105.755 12.469,105.611 12.096 C 105.549 11.934,105.349 11.763,105.166 11.715 C 104.983 11.667,104.833 11.580,104.833 11.522 C 104.833 11.464,104.458 11.417,104.000 11.417 C 103.542 11.417,103.167 11.464,103.167 11.522 " class="colorfb8f1f svgShape"></path><path fill="#ffffff" fill-rule="evenodd" d="M67.667 8.861 C 67.667 8.968,67.710 9.012,67.764 8.958 C 67.890 8.832,68.468 9.378,68.380 9.542 C 68.344 9.610,68.393 9.667,68.490 9.667 C 68.715 9.667,68.720 9.386,68.497 9.248 C 68.404 9.191,68.378 9.062,68.440 8.963 C 68.504 8.859,68.474 8.829,68.371 8.894 C 68.271 8.955,68.143 8.929,68.085 8.836 C 67.942 8.605,67.667 8.622,67.667 8.861 M69.000 10.194 C 69.000 10.301,69.044 10.345,69.097 10.292 C 69.224 10.165,69.801 10.711,69.714 10.875 C 69.677 10.944,69.726 11.000,69.823 11.000 C 70.048 11.000,70.053 10.719,69.831 10.582 C 69.737 10.524,69.712 10.396,69.773 10.296 C 69.837 10.192,69.808 10.163,69.704 10.227 C 69.604 10.288,69.476 10.263,69.418 10.169 C 69.276 9.939,69.000 9.955,69.000 10.194 M70.333 11.528 C 70.333 11.635,70.377 11.678,70.431 11.625 C 70.557 11.498,71.134 12.045,71.047 12.208 C 71.010 12.277,71.060 12.333,71.157 12.333 C 71.382 12.333,71.386 12.053,71.164 11.915 C 71.071 11.857,71.045 11.729,71.106 11.629 C 71.171 11.526,71.141 11.496,71.037 11.560 C 70.938 11.622,70.809 11.596,70.752 11.503 C 70.609 11.272,70.333 11.288,70.333 11.528 M102.375 11.735 C 101.976 12.156,101.886 12.500,102.177 12.500 C 102.274 12.500,102.313 12.436,102.265 12.358 C 102.152 12.174,102.905 11.460,103.054 11.610 C 103.116 11.672,103.167 11.635,103.167 11.528 C 103.167 11.209,102.776 11.311,102.375 11.735 M104.833 11.510 C 104.833 11.607,104.897 11.647,104.976 11.598 C 105.159 11.485,105.873 12.238,105.724 12.387 C 105.662 12.449,105.699 12.500,105.806 12.500 C 106.124 12.500,106.022 12.110,105.599 11.708 C 105.177 11.309,104.833 11.220,104.833 11.510 M71.667 12.861 C 71.667 12.968,71.710 13.012,71.764 12.958 C 71.890 12.832,72.468 13.378,72.380 13.542 C 72.344 13.610,72.393 13.667,72.490 13.667 C 72.715 13.667,72.720 13.386,72.497 13.248 C 72.404 13.191,72.378 13.062,72.440 12.963 C 72.504 12.859,72.474 12.829,72.371 12.894 C 72.271 12.955,72.143 12.929,72.085 12.836 C 71.942 12.605,71.667 12.622,71.667 12.861 M101.042 13.068 C 100.642 13.489,100.553 13.833,100.843 13.833 C 100.940 13.833,100.980 13.769,100.932 13.691 C 100.818 13.508,101.571 12.794,101.721 12.943 C 101.783 13.005,101.833 12.968,101.833 12.861 C 101.833 12.543,101.443 12.645,101.042 13.068 M106.167 12.843 C 106.167 12.940,106.231 12.980,106.309 12.932 C 106.492 12.818,107.206 13.571,107.057 13.721 C 106.995 13.783,107.032 13.833,107.139 13.833 C 107.457 13.833,107.355 13.443,106.932 13.042 C 106.511 12.642,106.167 12.553,106.167 12.843 M72.833 14.147 C 72.833 14.228,72.989 14.335,73.179 14.385 C 73.369 14.435,73.565 14.631,73.615 14.821 C 73.665 15.011,73.772 15.167,73.853 15.167 C 74.056 15.167,74.039 14.710,73.831 14.582 C 73.737 14.524,73.712 14.396,73.773 14.296 C 73.837 14.192,73.808 14.163,73.704 14.227 C 73.604 14.288,73.476 14.263,73.418 14.169 C 73.290 13.961,72.833 13.944,72.833 14.147 M99.708 14.401 C 99.309 14.823,99.220 15.167,99.510 15.167 C 99.607 15.167,99.647 15.103,99.598 15.024 C 99.485 14.841,100.238 14.127,100.387 14.276 C 100.449 14.338,100.500 14.301,100.500 14.194 C 100.500 13.876,100.110 13.978,99.708 14.401 M107.500 14.177 C 107.500 14.274,107.564 14.313,107.642 14.265 C 107.826 14.152,108.540 14.905,108.390 15.054 C 108.328 15.116,108.365 15.167,108.472 15.167 C 108.791 15.167,108.689 14.776,108.265 14.375 C 107.844 13.976,107.500 13.886,107.500 14.177 M74.167 15.481 C 74.167 15.562,74.322 15.668,74.512 15.718 C 74.703 15.768,74.899 15.964,74.948 16.154 C 74.998 16.344,75.105 16.500,75.186 16.500 C 75.389 16.500,75.372 16.044,75.164 15.915 C 75.071 15.857,75.045 15.729,75.106 15.629 C 75.171 15.526,75.141 15.496,75.037 15.560 C 74.938 15.622,74.809 15.596,74.752 15.503 C 74.623 15.295,74.167 15.277,74.167 15.481 M98.375 15.735 C 97.976 16.156,97.886 16.500,98.177 16.500 C 98.274 16.500,98.313 16.436,98.265 16.358 C 98.152 16.174,98.905 15.460,99.054 15.610 C 99.116 15.672,99.167 15.635,99.167 15.528 C 99.167 15.209,98.776 15.311,98.375 15.735 M108.833 15.510 C 108.833 15.607,108.897 15.647,108.976 15.598 C 109.159 15.485,109.873 16.238,109.724 16.387 C 109.662 16.449,109.699 16.500,109.806 16.500 C 110.124 16.500,110.022 16.110,109.599 15.708 C 109.177 15.309,108.833 15.220,108.833 15.510 M75.500 16.814 C 75.500 16.895,75.656 17.002,75.846 17.052 C 76.036 17.101,76.232 17.297,76.282 17.488 C 76.332 17.678,76.438 17.833,76.519 17.833 C 76.723 17.833,76.705 17.377,76.497 17.248 C 76.404 17.191,76.378 17.062,76.440 16.963 C 76.504 16.859,76.474 16.829,76.371 16.894 C 76.271 16.955,76.143 16.929,76.085 16.836 C 75.956 16.628,75.500 16.611,75.500 16.814 M97.042 17.068 C 96.642 17.489,96.553 17.833,96.843 17.833 C 96.940 17.833,96.980 17.769,96.932 17.691 C 96.818 17.508,97.571 16.794,97.721 16.943 C 97.783 17.005,97.833 16.968,97.833 16.861 C 97.833 16.543,97.443 16.645,97.042 17.068 M110.167 16.843 C 110.167 16.940,110.231 16.980,110.309 16.932 C 110.492 16.818,111.206 17.571,111.057 17.721 C 110.995 17.783,111.032 17.833,111.139 17.833 C 111.457 17.833,111.355 17.443,110.932 17.042 C 110.511 16.642,110.167 16.553,110.167 16.843 M76.833 18.147 C 76.833 18.228,76.989 18.335,77.179 18.385 C 77.369 18.435,77.565 18.631,77.615 18.821 C 77.665 19.011,77.772 19.167,77.853 19.167 C 78.056 19.167,78.039 18.710,77.831 18.582 C 77.737 18.524,77.712 18.396,77.773 18.296 C 77.837 18.192,77.808 18.163,77.704 18.227 C 77.604 18.288,77.476 18.263,77.418 18.169 C 77.290 17.961,76.833 17.944,76.833 18.147 M95.708 18.401 C 95.309 18.823,95.220 19.167,95.510 19.167 C 95.607 19.167,95.647 19.103,95.598 19.024 C 95.485 18.841,96.238 18.127,96.387 18.276 C 96.449 18.338,96.500 18.301,96.500 18.194 C 96.500 17.876,96.110 17.978,95.708 18.401 M111.500 18.177 C 111.500 18.274,111.564 18.313,111.642 18.265 C 111.826 18.152,112.540 18.905,112.390 19.054 C 112.328 19.116,112.365 19.167,112.472 19.167 C 112.791 19.167,112.689 18.776,112.265 18.375 C 111.844 17.976,111.500 17.886,111.500 18.177 M77.936 19.573 C 77.989 19.711,78.139 19.769,78.291 19.711 C 78.481 19.638,78.516 19.672,78.417 19.833 C 78.317 19.995,78.353 20.028,78.548 19.953 C 78.745 19.878,78.789 19.921,78.713 20.119 C 78.638 20.314,78.672 20.350,78.833 20.250 C 78.988 20.155,79.031 20.185,78.974 20.348 C 78.870 20.641,79.360 21.130,79.659 21.030 C 79.805 20.982,79.834 21.030,79.746 21.173 C 79.651 21.328,79.689 21.360,79.881 21.287 C 80.079 21.211,80.122 21.255,80.047 21.452 C 79.973 21.644,80.006 21.683,80.160 21.587 C 80.303 21.499,80.352 21.529,80.303 21.675 C 80.203 21.973,80.692 22.463,80.986 22.360 C 81.149 22.302,81.179 22.346,81.083 22.500 C 80.983 22.662,81.019 22.695,81.214 22.620 C 81.412 22.544,81.456 22.588,81.380 22.786 C 81.306 22.977,81.339 23.016,81.493 22.921 C 81.640 22.830,81.683 22.862,81.627 23.018 C 81.510 23.345,81.978 23.831,82.293 23.710 C 82.481 23.638,82.516 23.673,82.417 23.833 C 82.317 23.995,82.353 24.028,82.548 23.953 C 82.745 23.878,82.789 23.921,82.713 24.119 C 82.638 24.314,82.672 24.350,82.833 24.250 C 82.995 24.150,83.028 24.186,82.953 24.382 C 82.879 24.575,83.576 25.379,85.425 27.234 C 88.085 29.902,88.221 30.100,87.676 30.493 C 87.498 30.621,87.305 31.006,87.247 31.348 C 87.135 32.015,86.785 32.429,86.252 32.526 C 86.070 32.560,85.893 32.736,85.860 32.919 C 85.775 33.381,85.364 33.805,84.943 33.866 C 84.742 33.894,84.560 34.062,84.526 34.250 C 84.442 34.715,84.032 35.139,83.608 35.199 C 83.390 35.230,83.230 35.390,83.199 35.608 C 83.139 36.032,82.715 36.442,82.250 36.526 C 82.062 36.560,81.894 36.742,81.866 36.943 C 81.805 37.365,81.381 37.775,80.917 37.859 C 80.729 37.894,80.561 38.076,80.532 38.276 C 80.472 38.698,80.048 39.108,79.585 39.193 C 79.403 39.226,79.226 39.403,79.193 39.585 C 79.108 40.049,78.697 40.472,78.274 40.532 C 78.057 40.563,77.897 40.723,77.866 40.941 C 77.805 41.365,77.381 41.775,76.917 41.859 C 76.729 41.894,76.561 42.076,76.532 42.276 C 76.472 42.698,76.047 43.108,75.583 43.193 C 75.396 43.227,75.228 43.409,75.199 43.609 C 75.139 44.031,74.715 44.442,74.252 44.526 C 74.070 44.560,73.893 44.736,73.860 44.919 C 73.775 45.382,73.364 45.805,72.941 45.866 C 72.723 45.897,72.563 46.057,72.532 46.274 C 72.472 46.698,72.048 47.108,71.583 47.193 C 71.396 47.227,71.228 47.409,71.199 47.609 C 71.139 48.032,70.714 48.442,70.250 48.526 C 70.062 48.560,69.894 48.742,69.866 48.943 C 69.805 49.364,69.381 49.775,68.919 49.860 C 68.736 49.893,68.560 50.070,68.526 50.252 C 68.442 50.715,68.031 51.139,67.609 51.199 C 67.409 51.228,67.227 51.396,67.193 51.583 C 67.108 52.047,66.698 52.472,66.276 52.532 C 66.076 52.561,65.894 52.729,65.859 52.917 C 65.775 53.381,65.365 53.805,64.943 53.866 C 64.742 53.894,64.560 54.062,64.526 54.250 C 64.442 54.714,64.032 55.139,63.609 55.199 C 63.409 55.228,63.227 55.396,63.193 55.583 C 63.108 56.047,62.698 56.472,62.276 56.532 C 62.076 56.561,61.894 56.729,61.859 56.917 C 61.775 57.381,61.365 57.805,60.943 57.866 C 60.742 57.894,60.560 58.062,60.526 58.250 C 60.442 58.714,60.032 59.139,59.609 59.199 C 59.409 59.228,59.227 59.396,59.193 59.583 C 59.108 60.047,58.698 60.472,58.276 60.532 C 58.076 60.561,57.894 60.729,57.859 60.917 C 57.777 61.373,57.371 61.801,56.941 61.885 C 56.744 61.923,56.902 61.965,57.292 61.977 L 58.000 62.000 58.000 61.333 L 58.000 60.667 58.667 60.667 L 59.333 60.667 59.333 60.000 L 59.333 59.333 60.000 59.333 L 60.667 59.333 60.667 58.667 L 60.667 58.000 61.333 58.000 L 62.000 58.000 62.000 57.333 L 62.000 56.667 62.667 56.667 L 63.333 56.667 63.333 56.000 L 63.333 55.333 64.000 55.333 L 64.667 55.333 64.667 54.667 L 64.667 54.000 65.333 54.000 L 66.000 54.000 66.000 53.333 L 66.000 52.667 66.667 52.667 L 67.333 52.667 67.333 52.000 L 67.333 51.333 68.000 51.333 L 68.667 51.333 68.667 50.667 L 68.667 50.000 69.333 50.000 L 70.000 50.000 70.000 49.333 L 70.000 48.667 70.667 48.667 L 71.333 48.667 71.333 48.000 L 71.333 47.333 72.000 47.333 L 72.667 47.333 72.667 46.667 L 72.667 46.000 73.333 46.000 L 74.000 46.000 74.000 45.333 L 74.000 44.667 74.667 44.667 L 75.333 44.667 75.333 44.000 L 75.333 43.333 76.000 43.333 L 76.667 43.333 76.667 42.667 L 76.667 42.000 77.333 42.000 L 78.000 42.000 78.000 41.333 L 78.000 40.667 78.667 40.667 L 79.333 40.667 79.333 40.000 L 79.333 39.333 80.000 39.333 L 80.667 39.333 80.667 38.667 L 80.667 38.000 81.333 38.000 L 82.000 38.000 82.000 37.333 L 82.000 36.667 82.667 36.667 L 83.333 36.667 83.333 36.000 L 83.333 35.333 84.000 35.333 L 84.667 35.333 84.667 34.667 L 84.667 34.000 85.333 34.000 L 86.000 34.000 86.000 33.333 L 86.000 32.667 86.667 32.667 C 87.330 32.667,87.333 32.664,87.333 32.019 C 87.333 31.411,87.370 31.364,87.910 31.262 C 88.969 31.064,88.982 28.939,87.926 28.741 C 87.451 28.652,87.348 28.549,87.259 28.074 C 87.170 27.599,87.068 27.497,86.593 27.407 C 86.118 27.318,86.015 27.216,85.926 26.741 C 85.837 26.266,85.734 26.163,85.259 26.074 C 84.784 25.985,84.682 25.882,84.593 25.407 C 84.503 24.932,84.401 24.830,83.926 24.741 C 83.451 24.652,83.348 24.549,83.259 24.074 C 83.170 23.599,83.068 23.497,82.593 23.407 C 82.118 23.318,82.015 23.216,81.926 22.741 C 81.837 22.266,81.734 22.163,81.259 22.074 C 80.784 21.985,80.682 21.882,80.593 21.407 C 80.503 20.932,80.401 20.830,79.926 20.741 C 79.454 20.652,79.348 20.548,79.262 20.086 C 79.191 19.708,79.043 19.506,78.788 19.437 C 78.147 19.266,77.837 19.315,77.936 19.573 M94.375 19.735 C 93.976 20.156,93.886 20.500,94.177 20.500 C 94.274 20.500,94.313 20.436,94.265 20.358 C 94.152 20.174,94.905 19.460,95.054 19.610 C 95.116 19.672,95.167 19.635,95.167 19.528 C 95.167 19.209,94.776 19.311,94.375 19.735 M112.833 19.510 C 112.833 19.607,112.897 19.647,112.976 19.598 C 113.159 19.485,113.873 20.238,113.724 20.387 C 113.662 20.449,113.699 20.500,113.806 20.500 C 114.124 20.500,114.022 20.110,113.599 19.708 C 113.177 19.309,112.833 19.220,112.833 19.510 M93.130 38.114 C 92.964 38.158,92.801 38.421,92.740 38.746 C 92.652 39.215,92.548 39.319,92.074 39.407 C 91.599 39.497,91.497 39.599,91.407 40.074 C 91.318 40.549,91.216 40.652,90.741 40.741 C 90.266 40.830,90.163 40.932,90.074 41.407 C 89.985 41.882,89.882 41.985,89.407 42.074 C 88.932 42.163,88.830 42.266,88.741 42.741 C 88.652 43.216,88.549 43.318,88.074 43.407 C 87.599 43.497,87.497 43.599,87.407 44.074 C 87.318 44.549,87.216 44.652,86.741 44.741 C 86.266 44.830,86.163 44.932,86.074 45.407 C 85.985 45.882,85.882 45.985,85.407 46.074 C 84.932 46.163,84.830 46.266,84.741 46.741 C 84.652 47.216,84.549 47.318,84.074 47.407 C 83.599 47.497,83.497 47.599,83.407 48.074 C 83.318 48.549,83.216 48.652,82.741 48.741 C 82.266 48.830,82.163 48.932,82.074 49.407 C 81.985 49.882,81.882 49.985,81.407 50.074 C 80.932 50.163,80.830 50.266,80.741 50.741 C 80.652 51.216,80.549 51.318,80.074 51.407 C 79.599 51.497,79.497 51.599,79.407 52.074 C 79.318 52.549,79.216 52.652,78.741 52.741 C 78.266 52.830,78.163 52.932,78.074 53.407 C 77.985 53.882,77.882 53.985,77.407 54.074 C 76.932 54.163,76.830 54.266,76.741 54.741 C 76.652 55.216,76.549 55.318,76.074 55.407 C 75.599 55.497,75.497 55.599,75.407 56.074 C 75.318 56.549,75.216 56.652,74.741 56.741 C 74.266 56.830,74.163 56.932,74.074 57.407 C 73.985 57.882,73.882 57.985,73.407 58.074 C 72.932 58.163,72.830 58.266,72.741 58.741 C 72.652 59.216,72.549 59.318,72.074 59.407 C 71.599 59.497,71.497 59.599,71.407 60.074 C 71.318 60.549,71.216 60.652,70.741 60.741 C 70.266 60.830,70.163 60.932,70.074 61.407 C 69.985 61.882,69.882 61.985,69.407 62.074 C 68.932 62.163,68.830 62.266,68.741 62.741 C 68.652 63.216,68.549 63.318,68.074 63.407 C 67.599 63.497,67.497 63.599,67.407 64.074 C 67.318 64.549,67.216 64.652,66.741 64.741 C 66.266 64.830,66.163 64.932,66.074 65.407 C 65.985 65.882,65.882 65.985,65.407 66.074 C 64.932 66.163,64.830 66.266,64.741 66.741 C 64.652 67.216,64.549 67.318,64.074 67.407 C 63.599 67.497,63.497 67.599,63.407 68.074 C 63.318 68.549,63.216 68.652,62.741 68.741 C 62.266 68.830,62.163 68.932,62.074 69.407 C 61.985 69.882,61.882 69.985,61.407 70.074 C 60.932 70.163,60.830 70.266,60.741 70.741 C 60.652 71.216,60.549 71.318,60.074 71.407 C 59.599 71.497,59.497 71.599,59.407 72.074 C 59.318 72.549,59.216 72.652,58.741 72.741 C 58.266 72.830,58.163 72.932,58.074 73.407 C 57.985 73.882,57.882 73.985,57.407 74.074 C 56.929 74.164,56.830 74.264,56.738 74.756 C 56.565 75.680,55.379 75.640,55.302 74.708 C 55.253 74.119,55.215 74.080,54.634 74.032 C 54.056 73.984,54.016 73.944,53.968 73.366 C 53.920 72.787,53.879 72.747,53.301 72.699 C 52.723 72.651,52.683 72.610,52.634 72.032 C 52.586 71.454,52.546 71.414,51.968 71.366 C 51.390 71.317,51.349 71.277,51.301 70.699 C 51.253 70.121,51.213 70.080,50.634 70.032 C 50.056 69.984,50.016 69.944,49.968 69.366 C 49.920 68.787,49.879 68.747,49.301 68.699 C 48.723 68.651,48.683 68.610,48.634 68.032 C 48.586 67.454,48.546 67.414,47.968 67.366 C 47.390 67.317,47.349 67.277,47.301 66.699 C 47.252 66.106,47.225 66.082,46.583 66.052 L 45.917 66.021 46.450 66.199 C 46.840 66.329,47.012 66.508,47.091 66.866 C 47.150 67.136,47.322 67.399,47.474 67.453 C 47.927 67.612,48.500 68.204,48.500 68.513 C 48.500 68.683,48.705 68.872,49.001 68.975 C 49.473 69.140,49.882 69.771,49.790 70.193 C 49.768 70.293,49.862 70.409,50.000 70.450 C 50.222 70.517,50.222 70.506,50.000 70.349 C 49.846 70.240,49.826 70.171,49.948 70.169 C 50.058 70.168,50.194 70.243,50.252 70.336 C 50.309 70.429,50.418 70.468,50.493 70.421 C 50.568 70.375,50.722 70.449,50.835 70.585 C 50.948 70.722,50.985 70.833,50.917 70.833 C 50.848 70.833,50.895 70.960,51.021 71.115 C 51.217 71.356,51.215 71.376,51.013 71.255 C 50.833 71.146,50.804 71.182,50.890 71.408 C 50.977 71.635,50.940 71.679,50.732 71.599 C 50.530 71.522,50.481 71.570,50.543 71.789 C 50.788 72.658,50.784 72.664,50.083 72.398 C 49.782 72.283,49.773 72.299,49.988 72.563 C 50.258 72.895,34.722 88.667,34.126 88.667 C 33.860 88.667,33.754 88.856,33.818 89.221 C 33.831 89.296,33.764 89.310,33.668 89.251 C 33.573 89.192,33.545 89.062,33.606 88.963 C 33.675 88.852,33.640 88.830,33.517 88.906 C 33.406 88.975,33.344 89.117,33.380 89.222 C 33.493 89.563,33.027 89.846,32.418 89.805 C 32.024 89.778,31.851 89.695,31.904 89.557 C 31.955 89.423,31.888 89.387,31.714 89.453 C 31.566 89.510,31.486 89.488,31.536 89.403 C 31.678 89.166,31.364 88.481,31.127 88.512 C 30.619 88.578,30.320 88.490,30.433 88.308 C 30.504 88.191,30.478 88.160,30.367 88.229 C 30.261 88.295,29.012 87.181,27.414 85.598 C 25.446 83.648,24.567 82.882,24.378 82.955 C 24.186 83.028,24.150 82.995,24.250 82.833 C 24.350 82.672,24.314 82.638,24.119 82.713 C 23.921 82.789,23.878 82.745,23.953 82.548 C 24.027 82.356,23.994 82.317,23.840 82.413 C 23.694 82.503,23.650 82.471,23.707 82.315 C 23.824 81.989,23.355 81.502,23.040 81.623 C 22.852 81.695,22.817 81.661,22.917 81.500 C 23.017 81.338,22.981 81.305,22.786 81.380 C 22.588 81.456,22.544 81.412,22.620 81.214 C 22.694 81.023,22.661 80.984,22.507 81.079 C 22.364 81.168,22.315 81.138,22.364 80.992 C 22.463 80.694,21.975 80.204,21.681 80.307 C 21.518 80.364,21.488 80.321,21.583 80.167 C 21.683 80.005,21.647 79.972,21.452 80.047 C 21.255 80.122,21.211 80.079,21.287 79.881 C 21.360 79.689,21.328 79.651,21.173 79.746 C 21.030 79.834,20.982 79.805,21.030 79.659 C 21.130 79.360,20.641 78.870,20.348 78.974 C 20.185 79.031,20.155 78.988,20.250 78.833 C 20.350 78.672,20.314 78.638,20.119 78.713 C 19.921 78.789,19.878 78.745,19.953 78.548 C 20.028 78.353,19.995 78.317,19.833 78.417 C 19.672 78.516,19.638 78.481,19.711 78.291 C 19.769 78.139,19.711 77.989,19.573 77.936 C 19.315 77.837,19.266 78.147,19.437 78.788 C 19.506 79.043,19.708 79.191,20.086 79.262 C 20.548 79.348,20.652 79.454,20.741 79.926 C 20.830 80.401,20.932 80.503,21.407 80.593 C 21.882 80.682,21.985 80.784,22.074 81.259 C 22.163 81.734,22.266 81.837,22.741 81.926 C 23.216 82.015,23.318 82.118,23.407 82.593 C 23.497 83.068,23.599 83.170,24.074 83.259 C 24.549 83.348,24.652 83.451,24.741 83.926 C 24.830 84.401,24.932 84.503,25.407 84.593 C 25.882 84.682,25.985 84.784,26.074 85.259 C 26.163 85.734,26.266 85.837,26.741 85.926 C 27.216 86.015,27.318 86.118,27.407 86.593 C 27.497 87.068,27.599 87.170,28.074 87.259 C 28.549 87.348,28.652 87.451,28.741 87.926 C 28.830 88.401,28.932 88.503,29.407 88.593 C 29.882 88.682,29.985 88.784,30.074 89.259 C 30.163 89.734,30.266 89.837,30.741 89.926 C 31.216 90.015,31.318 90.118,31.407 90.593 C 31.497 91.068,31.599 91.170,32.074 91.259 C 32.549 91.348,32.652 91.451,32.741 91.926 C 32.830 92.401,32.932 92.503,33.407 92.593 C 33.882 92.682,33.985 92.784,34.074 93.259 C 34.163 93.734,34.266 93.837,34.741 93.926 C 35.216 94.015,35.318 94.118,35.407 94.593 C 35.497 95.068,35.599 95.170,36.074 95.259 C 36.549 95.348,36.652 95.451,36.741 95.926 C 36.830 96.401,36.932 96.503,37.407 96.593 C 37.882 96.682,37.985 96.784,38.074 97.259 C 38.163 97.734,38.266 97.837,38.741 97.926 C 39.216 98.015,39.318 98.118,39.407 98.593 C 39.497 99.068,39.599 99.170,40.074 99.259 C 40.549 99.348,40.652 99.451,40.741 99.926 C 40.830 100.401,40.932 100.503,41.407 100.593 C 41.882 100.682,41.985 100.784,42.074 101.259 C 42.163 101.734,42.266 101.837,42.741 101.926 C 43.216 102.015,43.318 102.118,43.407 102.593 C 43.497 103.068,43.599 103.170,44.074 103.259 C 44.549 103.348,44.652 103.451,44.741 103.926 C 44.830 104.401,44.932 104.503,45.407 104.593 C 45.882 104.682,45.985 104.784,46.074 105.259 C 46.163 105.734,46.266 105.837,46.741 105.926 C 47.216 106.015,47.318 106.118,47.407 106.593 C 47.497 107.068,47.599 107.170,48.074 107.259 C 48.549 107.348,48.652 107.451,48.741 107.926 C 48.830 108.401,48.932 108.503,49.407 108.593 C 49.882 108.682,49.985 108.784,50.074 109.259 C 50.163 109.734,50.266 109.837,50.741 109.926 C 51.216 110.015,51.318 110.118,51.407 110.593 C 51.497 111.068,51.599 111.170,52.074 111.259 C 52.549 111.348,52.652 111.451,52.741 111.926 C 52.831 112.405,52.931 112.503,53.423 112.596 C 53.839 112.674,54.000 112.791,54.000 113.019 C 54.000 113.310,54.150 113.333,56.000 113.333 C 57.868 113.333,58.000 113.312,58.000 113.010 C 58.000 112.757,58.135 112.676,58.625 112.635 C 59.214 112.586,59.253 112.548,59.301 111.968 C 59.349 111.390,59.390 111.349,59.968 111.301 C 60.546 111.253,60.586 111.213,60.634 110.634 C 60.683 110.056,60.723 110.016,61.301 109.968 C 61.879 109.920,61.920 109.879,61.968 109.301 C 62.016 108.723,62.056 108.683,62.634 108.634 C 63.213 108.586,63.253 108.546,63.301 107.968 C 63.349 107.390,63.390 107.349,63.968 107.301 C 64.546 107.253,64.586 107.213,64.634 106.634 C 64.683 106.056,64.723 106.016,65.301 105.968 C 65.879 105.920,65.920 105.879,65.968 105.301 C 66.016 104.723,66.056 104.683,66.634 104.634 C 67.213 104.586,67.253 104.546,67.301 103.968 C 67.349 103.390,67.390 103.349,67.968 103.301 C 68.546 103.253,68.586 103.213,68.634 102.634 C 68.683 102.056,68.723 102.016,69.301 101.968 C 69.879 101.920,69.920 101.879,69.968 101.301 C 70.016 100.723,70.056 100.683,70.634 100.634 C 71.213 100.586,71.253 100.546,71.301 99.968 C 71.349 99.390,71.390 99.349,71.968 99.301 C 72.546 99.253,72.586 99.213,72.634 98.634 C 72.683 98.056,72.723 98.016,73.301 97.968 C 73.879 97.920,73.920 97.879,73.968 97.301 C 74.016 96.723,74.056 96.683,74.634 96.634 C 75.213 96.586,75.253 96.546,75.301 95.968 C 75.349 95.390,75.390 95.349,75.968 95.301 C 76.546 95.253,76.586 95.213,76.634 94.634 C 76.683 94.056,76.723 94.016,77.301 93.968 C 77.879 93.920,77.920 93.879,77.968 93.301 C 78.016 92.723,78.056 92.683,78.634 92.634 C 79.213 92.586,79.253 92.546,79.301 91.968 C 79.349 91.390,79.390 91.349,79.968 91.301 C 80.546 91.253,80.586 91.213,80.634 90.634 C 80.683 90.056,80.723 90.016,81.301 89.968 C 81.879 89.920,81.920 89.879,81.968 89.301 C 82.016 88.723,82.056 88.683,82.634 88.634 C 83.213 88.586,83.253 88.546,83.301 87.968 C 83.349 87.390,83.390 87.349,83.968 87.301 C 84.546 87.253,84.586 87.213,84.634 86.634 C 84.683 86.056,84.723 86.016,85.301 85.968 C 85.879 85.920,85.920 85.879,85.968 85.301 C 86.016 84.723,86.056 84.683,86.634 84.634 C 87.213 84.586,87.253 84.546,87.301 83.968 C 87.349 83.390,87.390 83.349,87.968 83.301 C 88.546 83.253,88.586 83.213,88.634 82.634 C 88.683 82.056,88.723 82.016,89.301 81.968 C 89.879 81.920,89.920 81.879,89.968 81.301 C 90.016 80.723,90.056 80.683,90.634 80.634 C 91.213 80.586,91.253 80.546,91.301 79.968 C 91.349 79.390,91.390 79.349,91.968 79.301 C 92.546 79.253,92.586 79.213,92.634 78.634 C 92.683 78.056,92.723 78.016,93.301 77.968 C 93.879 77.920,93.920 77.879,93.968 77.301 C 94.016 76.723,94.056 76.683,94.634 76.634 C 95.213 76.586,95.253 76.546,95.301 75.968 C 95.349 75.390,95.390 75.349,95.968 75.301 C 96.546 75.253,96.586 75.213,96.634 74.634 C 96.683 74.056,96.723 74.016,97.301 73.968 C 97.879 73.920,97.920 73.879,97.968 73.301 C 98.016 72.723,98.056 72.683,98.634 72.634 C 99.213 72.586,99.253 72.546,99.301 71.968 C 99.349 71.390,99.390 71.349,99.968 71.301 C 100.546 71.253,100.586 71.213,100.634 70.634 C 100.683 70.056,100.723 70.016,101.301 69.968 C 101.879 69.920,101.920 69.879,101.968 69.301 C 102.016 68.723,102.056 68.683,102.634 68.634 C 103.213 68.586,103.253 68.546,103.301 67.968 C 103.349 67.390,103.390 67.349,103.968 67.301 C 104.546 67.253,104.586 67.213,104.634 66.634 C 104.683 66.056,104.723 66.016,105.301 65.968 C 105.879 65.920,105.920 65.879,105.968 65.301 C 106.016 64.723,106.056 64.683,106.634 64.634 C 107.213 64.586,107.253 64.546,107.301 63.968 C 107.349 63.390,107.390 63.349,107.968 63.301 C 108.546 63.253,108.586 63.213,108.634 62.634 C 108.683 62.056,108.723 62.016,109.301 61.968 C 109.879 61.920,109.920 61.879,109.968 61.301 C 110.016 60.723,110.056 60.683,110.634 60.634 C 111.213 60.586,111.253 60.546,111.301 59.968 C 111.349 59.390,111.390 59.349,111.968 59.301 C 112.546 59.253,112.586 59.213,112.634 58.634 C 112.683 58.056,112.723 58.016,113.301 57.968 L 113.917 57.917 113.968 56.583 C 114.044 54.578,113.938 54.201,113.259 54.074 C 112.784 53.985,112.682 53.882,112.593 53.407 C 112.503 52.932,112.401 52.830,111.926 52.741 C 111.451 52.652,111.348 52.549,111.259 52.074 C 111.170 51.599,111.068 51.497,110.593 51.407 C 110.118 51.318,110.015 51.216,109.926 50.741 C 109.837 50.266,109.734 50.163,109.259 50.074 C 108.784 49.985,108.682 49.882,108.593 49.407 C 108.503 48.932,108.401 48.830,107.926 48.741 C 107.451 48.652,107.348 48.549,107.259 48.074 C 107.170 47.599,107.068 47.497,106.593 47.407 C 106.118 47.318,106.015 47.216,105.926 46.741 C 105.837 46.266,105.734 46.163,105.259 46.074 C 104.784 45.985,104.682 45.882,104.593 45.407 C 104.503 44.932,104.401 44.830,103.926 44.741 C 103.451 44.652,103.348 44.549,103.259 44.074 C 103.170 43.599,103.068 43.497,102.593 43.407 C 102.118 43.318,102.015 43.216,101.926 42.741 C 101.837 42.266,101.734 42.163,101.259 42.074 C 100.784 41.985,100.682 41.882,100.593 41.407 C 100.503 40.932,100.401 40.830,99.926 40.741 C 99.451 40.652,99.348 40.549,99.259 40.074 C 99.170 39.599,99.068 39.497,98.593 39.407 C 98.121 39.319,98.015 39.215,97.928 38.753 C 97.857 38.374,97.710 38.172,97.454 38.104 C 97.033 37.991,93.567 37.999,93.130 38.114 M42.948 50.512 C 42.899 50.703,42.703 50.899,42.512 50.948 C 42.322 50.998,42.167 51.105,42.167 51.186 C 42.167 51.389,42.623 51.372,42.752 51.164 C 42.809 51.071,42.928 51.039,43.016 51.093 C 43.103 51.147,43.154 51.092,43.129 50.971 C 43.104 50.849,43.177 50.769,43.292 50.792 C 43.406 50.815,43.500 50.683,43.500 50.500 C 43.500 50.060,43.064 50.070,42.948 50.512 M44.725 51.917 C 44.749 52.560,44.772 52.585,45.366 52.634 C 45.944 52.683,45.984 52.723,46.032 53.301 C 46.080 53.879,46.121 53.920,46.699 53.968 C 47.277 54.016,47.317 54.056,47.366 54.634 C 47.414 55.213,47.454 55.253,48.032 55.301 C 48.610 55.349,48.651 55.390,48.699 55.968 C 48.747 56.546,48.787 56.586,49.366 56.634 C 49.944 56.683,49.984 56.723,50.032 57.301 C 50.080 57.879,50.121 57.920,50.699 57.968 C 51.277 58.016,51.317 58.056,51.366 58.634 C 51.414 59.213,51.454 59.253,52.032 59.301 C 52.610 59.349,52.651 59.390,52.699 59.968 C 52.747 60.546,52.787 60.586,53.366 60.634 C 53.944 60.683,53.984 60.723,54.032 61.301 L 54.083 61.917 55.333 61.937 C 56.021 61.949,56.358 61.923,56.083 61.881 C 55.808 61.839,55.475 61.717,55.343 61.610 C 55.157 61.460,55.131 61.464,55.228 61.625 C 55.297 61.740,55.274 61.833,55.177 61.833 C 55.079 61.833,55.000 61.754,55.000 61.657 C 55.000 61.560,54.923 61.528,54.829 61.586 C 54.735 61.644,54.679 61.592,54.704 61.471 C 54.729 61.349,54.651 61.271,54.529 61.296 C 54.408 61.321,54.356 61.265,54.414 61.171 C 54.472 61.077,54.440 61.000,54.343 61.000 C 54.246 61.000,54.167 60.904,54.167 60.787 C 54.167 60.669,53.937 60.486,53.656 60.380 C 53.342 60.262,53.075 60.001,52.963 59.704 C 52.854 59.415,52.585 59.146,52.296 59.037 C 52.001 58.925,51.738 58.658,51.622 58.350 C 51.491 58.004,51.283 57.812,50.962 57.742 C 50.634 57.670,50.422 57.469,50.257 57.075 C 50.104 56.708,49.871 56.474,49.588 56.403 C 49.306 56.332,49.073 56.098,48.919 55.730 C 48.769 55.371,48.569 55.167,48.368 55.167 C 47.995 55.167,47.559 54.720,47.474 54.250 C 47.437 54.048,47.256 53.894,47.013 53.860 C 46.504 53.788,46.212 53.496,46.140 52.985 C 46.101 52.708,45.959 52.566,45.681 52.527 C 45.180 52.456,44.888 52.172,44.782 51.652 C 44.736 51.431,44.711 51.550,44.725 51.917 M41.615 51.846 C 41.565 52.036,41.369 52.232,41.179 52.282 C 40.989 52.332,40.833 52.438,40.833 52.519 C 40.833 52.723,41.290 52.705,41.418 52.497 C 41.476 52.404,41.604 52.378,41.704 52.440 C 41.808 52.504,41.837 52.474,41.773 52.371 C 41.712 52.271,41.737 52.143,41.831 52.085 C 42.039 51.956,42.056 51.500,41.853 51.500 C 41.772 51.500,41.665 51.656,41.615 51.846 M40.282 53.179 C 40.232 53.369,40.036 53.565,39.846 53.615 C 39.656 53.665,39.500 53.772,39.500 53.853 C 39.500 54.056,39.956 54.039,40.085 53.831 C 40.143 53.737,40.271 53.712,40.371 53.773 C 40.474 53.837,40.504 53.808,40.440 53.704 C 40.378 53.604,40.404 53.476,40.497 53.418 C 40.705 53.290,40.723 52.833,40.519 52.833 C 40.438 52.833,40.332 52.989,40.282 53.179 M38.948 54.512 C 38.899 54.703,38.703 54.899,38.512 54.948 C 38.322 54.998,38.167 55.105,38.167 55.186 C 38.167 55.389,38.623 55.372,38.752 55.164 C 38.809 55.071,38.938 55.045,39.037 55.106 C 39.141 55.171,39.171 55.141,39.106 55.037 C 39.045 54.938,39.071 54.809,39.164 54.752 C 39.372 54.623,39.389 54.167,39.186 54.167 C 39.105 54.167,38.998 54.322,38.948 54.512 M37.615 55.846 C 37.565 56.036,37.369 56.232,37.179 56.282 C 36.743 56.396,36.734 56.602,37.161 56.713 C 37.355 56.764,37.474 56.721,37.453 56.608 C 37.433 56.503,37.516 56.437,37.637 56.462 C 37.759 56.488,37.814 56.437,37.760 56.349 C 37.706 56.261,37.737 56.143,37.831 56.085 C 38.039 55.956,38.056 55.500,37.853 55.500 C 37.772 55.500,37.665 55.656,37.615 55.846 M38.865 58.103 C 39.020 58.149,39.184 58.314,39.230 58.469 C 39.291 58.673,39.305 58.659,39.280 58.419 C 39.260 58.224,39.109 58.073,38.915 58.053 C 38.674 58.028,38.661 58.042,38.865 58.103 M40.198 59.436 C 40.353 59.483,40.517 59.647,40.564 59.802 C 40.624 60.006,40.638 59.992,40.614 59.752 C 40.594 59.558,40.442 59.406,40.248 59.386 C 40.008 59.362,39.994 59.376,40.198 59.436 M41.531 60.770 C 41.686 60.816,41.851 60.980,41.897 61.135 C 41.958 61.339,41.972 61.326,41.947 61.085 C 41.927 60.891,41.776 60.740,41.581 60.720 C 41.341 60.695,41.327 60.709,41.531 60.770 M42.865 62.103 C 43.020 62.149,43.184 62.314,43.230 62.469 C 43.291 62.673,43.305 62.659,43.280 62.419 C 43.260 62.224,43.109 62.073,42.915 62.053 C 42.674 62.028,42.661 62.042,42.865 62.103 M44.198 63.436 C 44.353 63.483,44.517 63.647,44.564 63.802 C 44.624 64.006,44.638 63.992,44.614 63.752 C 44.594 63.558,44.442 63.406,44.248 63.386 C 44.008 63.362,43.994 63.376,44.198 63.436 M45.531 64.770 C 45.686 64.816,45.851 64.980,45.897 65.135 C 45.958 65.339,45.972 65.326,45.947 65.085 C 45.927 64.891,45.776 64.740,45.581 64.720 C 45.341 64.695,45.327 64.709,45.531 64.770 M8.667 67.823 C 8.667 67.910,8.743 68.027,8.836 68.085 C 8.929 68.143,8.955 68.271,8.894 68.371 C 8.829 68.474,8.859 68.504,8.963 68.440 C 9.062 68.378,9.191 68.404,9.248 68.497 C 9.386 68.720,9.667 68.715,9.667 68.490 C 9.667 68.393,9.610 68.344,9.542 68.380 C 9.378 68.468,8.832 67.890,8.958 67.764 C 9.012 67.710,8.968 67.667,8.861 67.667 C 8.754 67.667,8.667 67.737,8.667 67.823 M10.000 69.157 C 10.000 69.243,10.076 69.361,10.169 69.418 C 10.263 69.476,10.288 69.604,10.227 69.704 C 10.163 69.808,10.192 69.837,10.296 69.773 C 10.396 69.712,10.524 69.737,10.582 69.831 C 10.719 70.053,11.000 70.048,11.000 69.823 C 11.000 69.726,10.944 69.677,10.875 69.714 C 10.711 69.801,10.165 69.224,10.292 69.097 C 10.345 69.044,10.301 69.000,10.194 69.000 C 10.087 69.000,10.000 69.071,10.000 69.157 M11.333 70.490 C 11.333 70.576,11.410 70.694,11.503 70.752 C 11.596 70.809,11.622 70.938,11.560 71.037 C 11.496 71.141,11.526 71.171,11.629 71.106 C 11.729 71.045,11.857 71.071,11.915 71.164 C 12.053 71.386,12.333 71.382,12.333 71.157 C 12.333 71.060,12.277 71.010,12.208 71.047 C 12.045 71.134,11.498 70.557,11.625 70.431 C 11.678 70.377,11.635 70.333,11.528 70.333 C 11.421 70.333,11.333 70.404,11.333 70.490 M12.667 71.823 C 12.667 71.910,12.743 72.027,12.836 72.085 C 12.929 72.143,12.955 72.271,12.894 72.371 C 12.829 72.474,12.859 72.504,12.963 72.440 C 13.062 72.378,13.191 72.404,13.248 72.497 C 13.386 72.720,13.667 72.715,13.667 72.490 C 13.667 72.393,13.610 72.344,13.542 72.380 C 13.378 72.468,12.832 71.890,12.958 71.764 C 13.012 71.710,12.968 71.667,12.861 71.667 C 12.754 71.667,12.667 71.737,12.667 71.823 M14.000 73.073 C 14.000 73.206,14.076 73.361,14.169 73.418 C 14.263 73.476,14.288 73.604,14.227 73.704 C 14.163 73.808,14.192 73.837,14.296 73.773 C 14.396 73.712,14.524 73.737,14.582 73.831 C 14.710 74.039,15.167 74.056,15.167 73.853 C 15.167 73.772,15.011 73.665,14.821 73.615 C 14.631 73.565,14.435 73.369,14.385 73.179 C 14.282 72.786,14.000 72.709,14.000 73.073 M15.333 74.407 C 15.333 74.539,15.410 74.694,15.503 74.752 C 15.596 74.809,15.622 74.938,15.560 75.037 C 15.496 75.141,15.526 75.171,15.629 75.106 C 15.729 75.045,15.857 75.071,15.915 75.164 C 16.044 75.372,16.500 75.389,16.500 75.186 C 16.500 75.105,16.344 74.998,16.154 74.948 C 15.964 74.899,15.768 74.703,15.718 74.512 C 15.616 74.120,15.333 74.042,15.333 74.407 M16.667 75.740 C 16.667 75.872,16.743 76.027,16.836 76.085 C 16.929 76.143,16.955 76.271,16.894 76.371 C 16.829 76.474,16.859 76.504,16.963 76.440 C 17.062 76.378,17.191 76.404,17.248 76.497 C 17.377 76.705,17.833 76.723,17.833 76.519 C 17.833 76.438,17.678 76.332,17.488 76.282 C 17.297 76.232,17.101 76.036,17.052 75.846 C 16.949 75.453,16.667 75.376,16.667 75.740 M18.000 77.073 C 18.000 77.206,18.076 77.361,18.169 77.418 C 18.263 77.476,18.288 77.604,18.227 77.704 C 18.163 77.808,18.192 77.837,18.296 77.773 C 18.396 77.712,18.524 77.737,18.582 77.831 C 18.710 78.039,19.167 78.056,19.167 77.853 C 19.167 77.772,19.011 77.665,18.821 77.615 C 18.631 77.565,18.435 77.369,18.385 77.179 C 18.282 76.786,18.000 76.709,18.000 77.073 " class="colorfc2f17 svgShape"></path><path fill="#ffffff" fill-rule="evenodd" d="M103.625 11.451 C 103.831 11.491,104.169 11.491,104.375 11.451 C 104.581 11.411,104.412 11.379,104.000 11.379 C 103.587 11.379,103.419 11.411,103.625 11.451 M238.464 16.781 C 238.299 16.824,238.137 17.081,238.083 17.386 C 237.932 18.233,238.068 76.291,238.222 76.444 C 238.451 76.673,253.495 76.712,253.769 76.485 C 254.088 76.220,254.119 17.185,253.800 16.867 C 253.605 16.672,239.187 16.591,238.464 16.781 M258.464 16.781 C 258.299 16.824,258.137 17.081,258.083 17.386 C 257.932 18.233,258.068 76.291,258.222 76.444 C 258.451 76.673,273.495 76.712,273.769 76.485 C 273.963 76.323,274.000 73.864,274.000 61.146 L 274.000 46.000 275.800 46.000 C 277.757 46.000,278.000 45.904,278.000 45.133 L 278.000 44.667 280.657 44.667 L 283.313 44.667 283.365 45.292 C 283.414 45.882,283.451 45.920,284.039 45.968 L 284.661 46.020 284.706 61.163 C 284.730 69.491,284.812 76.368,284.889 76.444 C 285.152 76.708,300.258 76.708,300.476 76.445 C 300.619 76.273,300.657 71.498,300.626 57.815 L 300.583 39.417 299.965 39.365 L 299.347 39.314 299.299 38.032 L 299.250 36.750 298.625 36.698 L 298.000 36.647 297.998 35.782 C 297.994 34.459,297.876 34.190,297.247 34.072 C 296.788 33.986,296.681 33.878,296.595 33.419 C 296.477 32.792,296.207 32.672,294.894 32.669 C 294.053 32.667,294.035 32.656,293.931 32.102 C 293.783 31.315,294.056 31.338,285.075 31.336 C 276.491 31.333,276.667 31.315,276.667 32.187 C 276.667 32.639,276.660 32.642,275.333 32.696 L 273.999 32.750 274.000 24.908 C 274.000 19.031,273.950 17.017,273.800 16.867 C 273.605 16.672,259.187 16.591,258.464 16.781 M304.743 16.875 C 304.699 16.990,304.682 19.972,304.706 23.500 L 304.750 29.917 312.667 29.917 L 320.583 29.917 320.627 23.519 C 320.658 18.936,320.617 17.058,320.482 16.894 C 320.215 16.573,304.866 16.554,304.743 16.875 M375.444 22.111 C 375.383 22.172,375.333 23.668,375.333 25.434 L 375.333 28.647 374.708 28.698 L 374.083 28.750 374.035 30.037 L 373.986 31.325 371.368 31.371 L 368.750 31.417 368.750 38.000 L 368.750 44.583 371.374 44.629 L 373.998 44.675 374.041 56.629 L 374.083 68.583 374.701 68.635 L 375.320 68.686 375.368 69.968 L 375.417 71.250 376.042 71.302 C 376.649 71.352,376.667 71.372,376.667 72.010 C 376.667 72.665,376.668 72.667,377.333 72.667 L 378.000 72.667 378.000 73.333 C 378.000 73.998,378.002 74.000,378.657 74.000 C 379.295 74.000,379.315 74.017,379.365 74.625 L 379.417 75.250 380.708 75.299 L 382.000 75.347 382.000 75.820 C 382.000 76.683,381.900 76.673,390.186 76.627 L 397.917 76.583 397.968 75.958 L 398.020 75.333 399.010 75.333 L 400.000 75.333 400.000 68.667 L 400.000 62.000 395.010 62.000 L 390.020 62.000 389.968 61.375 C 389.919 60.784,389.883 60.747,389.292 60.698 L 388.667 60.647 388.667 52.657 L 388.667 44.667 394.333 44.667 L 400.000 44.667 400.000 38.000 L 400.000 31.333 394.333 31.333 L 388.667 31.333 388.667 26.667 L 388.667 22.000 382.111 22.000 C 378.506 22.000,375.506 22.050,375.444 22.111 M163.534 31.532 C 163.424 31.643,163.333 31.940,163.333 32.193 C 163.333 32.651,163.329 32.653,162.042 32.701 L 160.750 32.750 160.698 33.375 L 160.647 34.000 159.782 34.002 C 158.459 34.006,158.190 34.124,158.072 34.753 C 157.986 35.212,157.878 35.319,157.419 35.405 C 156.791 35.523,156.672 35.793,156.669 37.115 L 156.667 37.980 156.042 38.032 L 155.417 38.083 155.368 39.358 L 155.320 40.632 154.750 40.739 C 153.986 40.882,153.977 40.956,154.035 46.583 L 154.083 51.250 154.703 51.301 L 155.323 51.353 155.370 53.301 L 155.417 55.250 156.032 55.301 C 156.610 55.349,156.651 55.390,156.699 55.968 C 156.747 56.546,156.787 56.586,157.366 56.634 C 157.944 56.683,157.984 56.723,158.032 57.301 L 158.083 57.917 159.365 57.965 L 160.647 58.014 160.699 58.632 L 160.750 59.250 164.708 59.295 L 168.667 59.339 168.667 59.803 C 168.667 60.606,168.869 60.667,171.533 60.667 L 174.000 60.667 174.000 61.333 C 174.000 61.952,173.967 62.000,173.533 62.000 C 172.941 62.000,172.667 62.274,172.667 62.867 L 172.667 63.333 168.010 63.333 L 163.353 63.333 163.302 62.708 L 163.250 62.083 159.333 62.083 L 155.417 62.083 155.417 68.667 L 155.417 75.250 156.691 75.298 L 157.965 75.347 158.070 75.905 C 158.218 76.693,157.726 76.662,170.000 76.662 C 182.274 76.662,181.782 76.693,181.930 75.905 L 182.035 75.347 183.309 75.298 L 184.583 75.250 184.635 74.625 C 184.685 74.017,184.705 74.000,185.343 74.000 C 185.998 74.000,186.000 73.998,186.000 73.333 L 186.000 72.667 186.667 72.667 C 187.332 72.667,187.333 72.665,187.333 72.010 C 187.333 71.372,187.351 71.352,187.958 71.302 L 188.583 71.250 188.632 69.958 C 188.681 68.671,188.682 68.667,189.140 68.667 C 190.016 68.667,190.000 68.819,190.000 60.667 C 190.000 52.529,190.015 52.667,189.152 52.667 C 188.715 52.667,188.703 52.638,188.639 51.509 C 188.559 50.090,188.577 50.108,187.167 50.028 L 186.018 49.963 185.967 49.357 L 185.917 48.750 184.625 48.701 C 183.338 48.653,183.333 48.651,183.333 48.193 C 183.333 47.346,183.262 47.333,178.485 47.333 L 174.037 47.333 173.931 46.768 C 173.801 46.073,173.588 46.005,171.542 46.002 L 170.000 46.000 170.000 45.333 L 170.000 44.667 178.669 44.667 L 187.337 44.667 187.294 38.042 L 187.250 31.417 175.493 31.374 C 166.487 31.341,163.688 31.378,163.534 31.532 M203.444 31.444 C 203.383 31.506,203.333 31.806,203.333 32.111 L 203.333 32.667 201.533 32.667 C 199.581 32.667,199.333 32.763,199.333 33.523 C 199.333 33.931,199.266 33.985,198.708 34.032 C 198.117 34.081,198.081 34.117,198.032 34.708 C 197.981 35.316,197.962 35.333,197.323 35.333 C 196.668 35.333,196.667 35.335,196.667 36.000 L 196.667 36.667 196.000 36.667 C 195.335 36.667,195.333 36.668,195.333 37.323 C 195.333 37.962,195.316 37.981,194.708 38.032 L 194.083 38.083 194.035 39.375 C 193.986 40.662,193.984 40.667,193.526 40.667 C 192.728 40.667,192.667 40.871,192.667 43.533 L 192.667 46.000 192.200 46.000 C 191.317 46.000,191.333 45.857,191.336 53.742 C 191.338 62.006,191.317 61.784,192.102 61.931 L 192.667 62.037 192.669 64.227 C 192.672 66.964,192.713 67.129,193.435 67.264 L 194.000 67.370 194.000 68.485 C 194.000 69.715,194.161 70.000,194.857 70.000 C 195.264 70.000,195.319 70.067,195.365 70.625 C 195.414 71.214,195.452 71.253,196.032 71.301 C 196.610 71.349,196.651 71.390,196.699 71.968 C 196.747 72.546,196.787 72.586,197.366 72.634 C 197.944 72.683,197.984 72.723,198.032 73.301 L 198.083 73.917 199.365 73.965 L 200.647 74.014 200.699 74.632 L 200.750 75.250 202.699 75.297 L 204.647 75.344 204.699 75.964 L 204.750 76.583 213.815 76.626 C 223.532 76.673,223.333 76.690,223.333 75.813 L 223.333 75.333 224.875 75.331 C 226.916 75.328,227.134 75.259,227.263 74.574 C 227.356 74.078,227.432 74.013,227.975 73.967 C 228.547 73.920,228.586 73.879,228.635 73.292 C 228.685 72.684,228.705 72.667,229.343 72.667 C 229.998 72.667,230.000 72.665,230.000 72.000 L 230.000 71.333 230.667 71.333 C 231.332 71.333,231.333 71.332,231.333 70.677 C 231.333 70.038,231.351 70.019,231.958 69.968 L 232.583 69.917 232.632 68.635 L 232.680 67.353 233.299 67.301 L 233.917 67.250 233.964 65.301 L 234.010 63.353 234.630 63.301 L 235.250 63.250 235.250 54.000 L 235.250 44.750 234.625 44.698 L 234.000 44.647 233.998 42.448 C 233.995 39.709,233.952 39.537,233.241 39.404 C 232.744 39.311,232.679 39.235,232.634 38.691 C 232.586 38.120,232.546 38.080,231.958 38.032 L 231.333 37.980 231.331 37.115 C 231.328 35.793,231.209 35.523,230.581 35.405 C 230.122 35.319,230.014 35.212,229.928 34.753 C 229.810 34.124,229.541 34.006,228.218 34.002 L 227.353 34.000 227.302 33.375 L 227.250 32.750 225.976 32.702 L 224.701 32.653 224.597 32.095 C 224.524 31.708,224.378 31.506,224.121 31.437 C 223.608 31.300,203.582 31.307,203.444 31.444 M304.778 31.444 C 304.533 31.690,304.652 76.280,304.898 76.485 C 305.172 76.712,320.216 76.673,320.445 76.444 C 320.671 76.218,320.707 31.833,320.481 31.561 C 320.280 31.318,305.017 31.205,304.778 31.444 M324.744 31.540 C 324.700 31.655,324.684 41.837,324.707 54.167 L 324.750 76.583 332.000 76.583 L 339.250 76.583 339.293 61.977 L 339.335 47.370 339.911 47.262 C 340.404 47.170,340.503 47.072,340.594 46.584 L 340.701 46.013 341.976 45.965 L 343.250 45.917 343.302 45.292 L 343.353 44.667 346.010 44.667 L 348.667 44.667 348.667 45.133 C 348.667 45.726,348.941 46.000,349.533 46.000 C 349.933 46.000,350.000 46.067,350.000 46.467 C 350.000 47.059,350.274 47.333,350.867 47.333 L 351.333 47.333 351.333 61.813 C 351.333 73.962,351.371 76.323,351.565 76.485 C 351.839 76.712,366.883 76.673,367.111 76.444 C 367.266 76.289,367.401 42.223,367.250 41.381 C 367.169 40.930,367.063 40.829,366.577 40.738 L 366.000 40.630 365.998 39.106 C 365.995 37.085,365.925 36.866,365.241 36.737 C 364.744 36.644,364.679 36.568,364.634 36.025 C 364.587 35.455,364.545 35.413,363.968 35.366 C 363.390 35.317,363.349 35.277,363.301 34.699 C 363.253 34.121,363.213 34.080,362.634 34.032 C 362.056 33.984,362.016 33.944,361.968 33.366 L 361.917 32.750 360.635 32.701 L 359.353 32.653 359.301 32.035 L 359.250 31.417 351.250 31.369 C 342.010 31.314,342.220 31.297,342.071 32.090 C 341.964 32.659,341.951 32.667,341.106 32.669 C 339.793 32.672,339.523 32.792,339.405 33.419 C 339.313 33.913,339.237 33.974,338.657 34.029 L 338.012 34.091 337.964 32.754 L 337.917 31.417 331.371 31.373 C 326.223 31.339,324.807 31.374,324.744 31.540 M216.698 45.292 L 216.750 45.917 218.037 45.965 L 219.325 46.014 219.371 48.632 L 219.417 51.250 220.042 51.302 L 220.667 51.353 220.667 53.325 L 220.667 55.296 220.102 55.402 C 219.380 55.538,219.338 55.702,219.336 58.448 L 219.333 60.647 218.708 60.698 C 218.117 60.747,218.081 60.784,218.032 61.375 L 217.980 62.000 213.323 62.000 L 208.667 62.000 208.667 61.333 L 208.667 60.667 208.000 60.667 L 207.333 60.667 207.333 54.010 L 207.333 47.353 207.958 47.302 C 208.549 47.253,208.586 47.216,208.635 46.625 L 208.687 46.000 209.552 45.998 C 210.882 45.994,211.143 45.878,211.264 45.232 L 211.370 44.667 214.008 44.667 L 216.647 44.667 216.698 45.292 " class="color343434 svgShape"></path><path fill="#ffffff" fill-rule="evenodd" class="color64801c svgShape"></path><path fill="#ffffff" fill-rule="evenodd" class="color68281c svgShape"></path></svg></g></svg>